<svg width="201" height="148" viewBox="0 0 201 148" fill="none" xmlns="http://www.w3.org/2000/svg">
<path d="M168.596 40.6097C167.927 39.8955 167.246 39.1911 166.555 38.4968C167.158 38.5813 169.165 38.8775 168.664 37.8035C168.469 37.3848 167.017 37.4477 166.626 37.4099C165.981 37.4067 165.354 37.2018 164.837 36.8255C162.651 35.3612 160.86 33.3084 158.63 31.836C156.247 30.2368 153.637 28.9837 150.884 28.1161C149.648 27.7394 144.716 26.0748 144.057 27.6988C143.414 29.2801 148.385 30.6206 149.503 31.1522C152.033 32.3552 154.509 33.6577 156.931 35.0595C159.352 36.4614 161.711 37.9568 164.008 39.5458C165.003 40.3456 166.043 41.0907 167.123 41.7777C168.14 42.3188 169.76 41.8501 168.596 40.6097Z" fill="#FFC5CB"/>
<path d="M126.946 6.33417C123.694 6.57102 120.544 7.55422 117.743 9.20589C116.726 9.81437 115.364 10.7376 116.33 12.0426C117.036 13.0043 118.162 12.5791 119.133 12.3665C118.109 12.7861 116.3 13.8674 116.873 15.199C117.447 16.5307 118.961 15.8285 119.875 15.3144C118.789 16.0033 117.332 16.993 117.432 18.4694C117.524 19.787 118.831 20.4081 120.027 20.3983C121.425 20.3864 122.776 19.6129 124.102 19.2576C125.581 18.8649 127.105 18.6648 128.637 18.6624C131.505 18.6476 134.336 19.3134 136.892 20.6039C139.703 22.0349 141.878 24.3338 144.483 26.0648C148.806 28.9386 155.4 29.1422 156.786 22.9938C158.128 17.0489 152.919 11.7552 148.075 9.18771C141.539 5.7236 134.144 5.66345 126.946 6.33417Z" fill="#744B09"/>
<path d="M128.6 16.0189C127.065 15.8584 125.615 16.7544 124.342 17.4852C121.092 19.3453 118.035 21.5238 115.217 23.9885C110.436 28.2753 106.366 33.2905 103.157 38.8478C101.69 41.3567 100.397 43.9628 99.2866 46.648C98.4707 48.6224 97.6743 50.603 96.8974 52.5899C96.7 53.0954 95.7625 54.7305 96.0566 55.3105C96.5122 56.2059 97.2412 55.3532 97.4994 54.776C96.8243 56.5861 98.2546 56.7851 98.7572 55.9104C98.7682 56.2045 98.8476 57.0014 99.3205 57C99.8893 57 99.7961 56.6239 99.8996 56.2424C99.9584 55.7194 100.049 55.2006 100.17 54.6885C100.232 54.1263 100.361 53.5734 100.554 53.0417C100.564 53.0031 100.572 52.9632 100.584 52.9253C102.895 45.2952 108.09 38.938 113.907 33.6401C116.596 31.2213 119.407 28.9415 122.329 26.8096C124.979 24.8536 129.347 22.7115 130.728 19.5625C130.919 19.1949 131.012 18.7847 130.999 18.3711C130.986 17.9574 130.867 17.5539 130.654 17.1989C130.441 16.8439 130.14 16.5491 129.781 16.3426C129.421 16.1361 129.015 16.0246 128.6 16.0189V16.0189Z" fill="#FFC5CB"/>
<path d="M107.098 52.4293C106.335 53.4985 105.759 54.6844 105.392 55.9386C105.033 56.8522 104.04 57.6977 103.849 56.1156C103.079 57.0877 102.296 56.4492 102.498 55.1578C102.082 55.6064 101.197 56.1197 101.009 55.2218C100.905 54.7303 101.754 53.833 102.011 53.4355C103.134 51.6954 104.208 49.9248 105.331 48.1848C107.601 44.5895 110.079 41.1238 112.752 37.8047C117.524 31.9978 123.41 26.6519 130.519 23.7587C132.017 23.146 133.767 22.6313 135.326 23.3502C137.071 24.1583 137.452 26.0188 136.467 27.5872C135.167 29.6574 132.152 30.8862 130.024 32.0203C126.803 33.7372 123.478 35.2607 120.546 37.4479C115.142 41.4821 110.984 47.0459 107.098 52.4293Z" fill="#FFC5CB"/>
<path d="M124.276 24.6541C124.132 24.8588 124.041 25.0945 124.011 25.341C123.981 25.5876 124.013 25.8375 124.104 26.0692C124.196 26.301 124.343 26.5076 124.535 26.6713C124.726 26.8351 124.956 26.951 125.204 27.0091C126.417 27.3246 128.229 26.8209 129.493 26.7834C132.306 26.6818 135.112 27.1248 137.748 28.0867C139.325 28.6367 140.847 28.377 142.505 28.5229C143.383 28.6006 144.394 28.9945 145.256 29C146.151 28.8915 147.031 28.6916 147.882 28.4036C148.68 28.223 149.478 28.0683 150.29 27.9606C150.798 27.8924 152.319 28.011 152.69 27.7561C153.487 27.2108 153.802 24.1109 154.025 23.2446C154.522 21.3204 155.76 19.0344 154.339 17.267C153.184 15.8302 151.203 14.9768 149.519 14.3068C145.05 12.4287 140.167 11.6786 135.322 12.1257C133.637 12.3147 131.985 12.715 130.406 13.3165C129.621 13.6199 128.861 13.9801 128.131 14.3941C127.784 14.5477 127.46 14.7483 127.17 14.9898C126.757 15.5235 126.965 15.092 126.988 15.7204C127.048 17.3256 127.386 18.4973 126.832 20.1433C126.217 21.7634 125.355 23.284 124.276 24.6541V24.6541Z" fill="#FF724C"/>
<path d="M171.891 32.5225C169.283 27.8897 165.75 23.8426 161.514 20.6325C159.377 19.001 157.084 17.5847 154.669 16.4041C153.225 15.6982 148.876 13.0817 147.439 14.3349C145.409 16.1068 151.013 18.3468 152.099 18.9953C154.676 20.5348 157.218 22.1386 159.645 23.9057C162.051 25.6307 164.305 27.5593 166.382 29.6703C166.619 29.845 166.819 30.066 166.969 30.32C167.119 30.574 167.216 30.8558 167.255 31.1483C167.314 31.6704 166.934 32.2451 167.03 32.7398C167.336 34.3169 168.304 32.8396 168.484 32.0127C169.043 32.6749 169.931 33.9541 170.874 33.9944C171.056 34.0135 171.24 33.9833 171.406 33.9069C171.573 33.8305 171.715 33.7108 171.819 33.5602C171.923 33.4096 171.985 33.2339 171.998 33.0513C172.01 32.8687 171.974 32.686 171.891 32.5225V32.5225Z" fill="#FFC5CB"/>
<path d="M146.975 18.3185C147.132 18.0742 147.213 17.7898 147.209 17.5004C147.209 15.4846 144.057 15.5152 144.057 17.5004C144.045 17.7889 144.124 18.0739 144.283 18.3165C144.441 18.559 144.672 18.7471 144.943 18.8551C143.236 19.5501 142 20.7964 142 22.6022C142 28.4652 155 28.4666 155 22.6022C155 19.2096 150.644 17.7846 146.975 18.3185Z" fill="#FFC5CB"/>
<path d="M140.732 9.23712C142.244 8.29699 146.404 10.4084 147.745 11.114C149.929 12.2313 151.859 13.7581 153.42 15.6045C154.896 17.3643 155.786 19.5119 155.973 21.7664C156.107 23.6332 155.787 26.6915 153.901 27.7817C150.777 29.5896 148.59 19.6286 147.591 17.7788C146.441 15.6491 144.665 14.3616 142.618 13.0767C141.569 12.4218 138.648 10.6348 140.732 9.23712Z" fill="#744B09"/>
<path d="M147.39 25.7234C146.958 23.4624 146.478 21.2056 146.094 18.9361C145.864 17.5719 145.979 16.2078 147.318 15.4071C149.083 14.3514 151.084 15.4783 151.604 17.3041C152.158 19.5421 152.59 21.8077 152.9 24.0914C153.116 25.3872 153.068 26.616 151.875 27.4765C151.485 27.7501 151.031 27.923 150.556 27.9796C150.081 28.0362 149.599 27.9747 149.153 27.8007C148.708 27.6266 148.314 27.3456 148.006 26.9829C147.698 26.6202 147.487 26.1873 147.39 25.7234Z" fill="#FFD400"/>
<path d="M151.938 15.6951C152.246 15.0987 152.757 14.6004 153.403 14.2688C154.048 13.9373 154.795 13.7888 155.541 13.844C156.155 13.8893 156.151 13.0537 155.541 13.0084C154.587 12.9542 153.636 13.1628 152.825 13.605C152.013 14.0471 151.38 14.7005 151.016 15.473C150.984 15.5798 151.001 15.6934 151.063 15.7895C151.125 15.8856 151.228 15.9565 151.35 15.9871C151.472 16.0139 151.602 15.9986 151.711 15.9442C151.821 15.8898 151.902 15.8006 151.938 15.6951V15.6951Z" fill="#FFD400"/>
<path d="M151.5 20C151.366 20.0047 151.239 20.0594 151.145 20.1527C151.052 20.2459 151 20.3704 151 20.5C151 20.6296 151.052 20.7541 151.145 20.8473C151.239 20.9406 151.366 20.9953 151.5 21C151.634 20.9953 151.761 20.9406 151.855 20.8473C151.948 20.7541 152 20.6296 152 20.5C152 20.3704 151.948 20.2459 151.855 20.1527C151.761 20.0594 151.634 20.0047 151.5 20V20Z" fill="black"/>
<path d="M148.5 25C148.366 25.0047 148.239 25.0594 148.145 25.1527C148.052 25.2459 148 25.3704 148 25.5C148 25.6296 148.052 25.7541 148.145 25.8473C148.239 25.9406 148.366 25.9953 148.5 26C148.634 25.9953 148.761 25.9406 148.855 25.8473C148.948 25.7541 149 25.6296 149 25.5C149 25.3704 148.948 25.2459 148.855 25.1527C148.761 25.0594 148.634 25.0047 148.5 25V25Z" fill="black"/>
<path d="M152.114 19.3234C152.246 19.3648 152.367 19.4377 152.465 19.5358C152.563 19.6339 152.636 19.7542 152.677 19.8865C152.74 20.0859 153.056 20.0007 152.991 19.7998C152.934 19.6138 152.831 19.4446 152.694 19.3068C152.556 19.169 152.386 19.0667 152.2 19.0086C152 18.9443 151.914 19.259 152.113 19.3226L152.114 19.3234Z" fill="black"/>
<path d="M150.008 24.4609L150.265 25.7347C150.356 26.2004 151.087 26.0008 150.991 25.5387L150.734 24.2649C150.644 23.8001 149.917 23.9988 150.008 24.4609V24.4609Z" fill="black"/>
<path d="M117.5 38C117.365 38.0071 117.238 38.0628 117.145 38.1558C117.052 38.2488 117 38.372 117 38.5C117 38.628 117.052 38.7512 117.145 38.8442C117.238 38.9371 117.365 38.9929 117.5 39C117.635 38.9929 117.762 38.9371 117.855 38.8442C117.948 38.7512 118 38.628 118 38.5C118 38.372 117.948 38.2488 117.855 38.1558C117.762 38.0628 117.635 38.0071 117.5 38V38Z" fill="#F36B73"/>
<path d="M115.5 40C115.365 40.0071 115.238 40.0629 115.145 40.1558C115.052 40.2488 115 40.372 115 40.5C115 40.628 115.052 40.7512 115.145 40.8442C115.238 40.9371 115.365 40.9929 115.5 41C115.635 40.9929 115.762 40.9371 115.855 40.8442C115.948 40.7512 116 40.628 116 40.5C116 40.372 115.948 40.2488 115.855 40.1558C115.762 40.0629 115.635 40.0071 115.5 40V40Z" fill="#F36B73"/>
<path d="M111.5 34C111.365 34.0071 111.238 34.0629 111.145 34.1558C111.052 34.2488 111 34.372 111 34.5C111 34.628 111.052 34.7512 111.145 34.8442C111.238 34.9371 111.365 34.9929 111.5 35C111.635 34.9929 111.762 34.9371 111.855 34.8442C111.948 34.7512 112 34.628 112 34.5C112 34.372 111.948 34.2488 111.855 34.1558C111.762 34.0629 111.635 34.0071 111.5 34V34Z" fill="#F36B73"/>
<path d="M111.5 32C111.365 32.0071 111.238 32.0629 111.145 32.1558C111.052 32.2488 111 32.372 111 32.5C111 32.628 111.052 32.7512 111.145 32.8442C111.238 32.9371 111.365 32.9929 111.5 33C111.635 32.9929 111.762 32.9371 111.855 32.8442C111.948 32.7512 112 32.628 112 32.5C112 32.372 111.948 32.2488 111.855 32.1558C111.762 32.0629 111.635 32.0071 111.5 32Z" fill="#F36B73"/>
<path d="M148.997 22.4459C148.975 21.7932 149.059 20.0578 148.223 20.0014C147.409 19.9463 146.961 21.5499 147.003 22.2254C147.127 24.1198 149.083 24.9302 148.997 22.4459Z" fill="white"/>
<path d="M130.428 0.979587C131.757 0.573684 133.23 0.351461 134.73 0.330105C134.803 0.328025 134.872 0.309728 134.922 0.279003C134.972 0.248277 135 0.207477 135 0.165052C135 0.122627 134.972 0.0818272 134.922 0.0511018C134.872 0.0203764 134.803 0.00207943 134.73 0C133.13 0.0231313 131.559 0.26087 130.142 0.694768C129.819 0.793283 130.105 1.0781 130.428 0.979587V0.979587Z" fill="black"/>
<path d="M134.387 2.9971C136.148 2.70253 137.931 2.63916 139.704 2.80819C140.1 2.84545 140.098 2.12446 139.704 2.08806C137.876 1.92046 136.037 1.99225 134.223 2.30211C133.831 2.36884 134 3.06297 134.387 2.99537V2.9971Z" fill="black"/>
<path d="M84.4884 67.93L90.9049 62.4843C91.1837 62.2475 90.7877 61.8352 90.511 62.0699L84.0951 67.5163C83.8164 67.7531 84.2123 68.1648 84.4884 67.93V67.93Z" fill="black"/>
<path d="M80.3337 61.991L88.8086 59.6606C89.1441 59.5686 89.0014 58.9162 88.6666 59.009L80.1916 61.3394C79.8555 61.4314 79.9988 62.0838 80.3337 61.991Z" fill="black"/>
<path d="M83.1321 53.5473L89.5607 57.9463C89.8778 58.1631 90.1817 57.6676 89.8683 57.4529L83.4389 53.0539C83.1226 52.8365 82.8179 53.3326 83.1321 53.5473V53.5473Z" fill="black"/>
<path d="M188.385 93.0939C186.934 93.314 185.519 93.9447 184.024 93.8112C182.726 93.6957 181.812 92.986 180.787 92.2659C178.268 90.5054 176.945 91.5521 174.451 92.6462C172.038 93.706 170.483 92.3216 168.691 90.8582C166.709 89.2379 165.017 88.9649 162.682 90.0735C160.609 91.0576 158.743 92.052 156.718 90.3836C155.191 89.1279 154.142 86.9574 151.826 87.2841C149.476 87.6155 148.086 89.6684 145.509 88.7929C143.406 88.0784 141.832 86.2394 139.636 85.7491C137.163 85.1989 135.506 87.0558 133.298 87.6747C130.5 88.4656 129.475 85.6652 127.041 85.2842C124.83 84.9403 123.235 87.1864 121.093 87.0482C118.778 86.899 118.471 83.5718 115.933 84.0463C114.678 84.2815 113.856 85.4149 112.65 85.7511C111.947 85.9471 109.895 85.7553 110.281 84.5449C108.437 85.7876 106.629 86.9306 104.786 88.1733C105.365 88.5316 105.911 88.9986 106.557 89.4194C106.62 89.4577 106.669 89.5153 106.697 89.5837C106.725 89.652 106.731 89.7276 106.712 89.7991C106.318 91.0837 106.407 92.2123 105.261 93.0616C103.765 94.1688 102.151 95.1488 100.626 96.2189C98.7809 97.4749 97.0301 98.863 95.3874 100.372C94.2752 101.504 93.0287 102.497 91.6752 103.329C91.6549 103.38 91.6223 103.424 91.5803 103.458C91.5384 103.493 91.4885 103.517 91.4351 103.527C91.3817 103.537 91.3265 103.534 91.2745 103.518C91.2226 103.502 91.1755 103.473 91.1376 103.435C89.906 102.177 88.4898 101.114 86.9375 100.279L61.8924 117.164L55 121.81L96.4744 127.417L117.249 130.225L127.241 131.575L132.412 132.274C133.706 132.449 135.959 133.25 137.208 132.922C137.847 132.608 138.44 132.209 138.97 131.734L143.614 128.602L158.341 118.675L189.092 97.9424C190.294 97.2441 191.449 96.4663 192.547 95.6144C194.482 93.8731 189.675 92.8986 188.385 93.0939Z" fill="#9ECAFD"/>
<path d="M108.137 98.4962C109.285 99.0557 110.598 99.1531 111.814 98.7687C112.141 98.6655 112.001 98.1413 111.671 98.2459C110.595 98.5948 109.429 98.5173 108.406 98.0289C108.097 97.8799 107.827 98.3479 108.137 98.4975V98.4962Z" fill="black"/>
<path d="M119.296 98L122.704 97.885C122.784 97.8794 122.859 97.8303 122.914 97.748C122.969 97.6656 123 97.5562 123 97.4425C123 97.3288 122.969 97.2194 122.914 97.137C122.859 97.0546 122.784 97.0056 122.704 97L119.296 97.115C119.216 97.1206 119.141 97.1696 119.086 97.252C119.031 97.3344 119 97.4438 119 97.5575C119 97.6712 119.031 97.7806 119.086 97.863C119.141 97.9454 119.216 97.9944 119.296 98V98Z" fill="black"/>
<path d="M122.258 101.686L125.742 101.999C126.087 102.03 126.085 101.344 125.742 101.314L122.258 101.001C121.913 100.97 121.915 101.656 122.258 101.686Z" fill="black"/>
<path d="M141.25 103.57L145.75 103.999C146.085 104.031 146.082 103.462 145.75 103.43L141.25 103.001C140.916 102.97 140.918 103.538 141.25 103.57Z" fill="black"/>
<path d="M117.284 109L122.716 108.962C122.793 108.956 122.865 108.902 122.918 108.813C122.971 108.723 123 108.605 123 108.481C123 108.357 122.971 108.238 122.918 108.149C122.865 108.059 122.793 108.006 122.716 108L117.284 108.038C117.207 108.044 117.135 108.098 117.082 108.187C117.029 108.277 117 108.395 117 108.519C117 108.643 117.029 108.762 117.082 108.851C117.135 108.941 117.207 108.994 117.284 109Z" fill="black"/>
<path d="M135.162 109.553L137.719 109.997C138 110.046 138.122 109.495 137.838 109.447L135.281 109.003C134.999 108.954 134.878 109.504 135.162 109.553V109.553Z" fill="black"/>
<path d="M143.215 114.733C145.06 115.102 146.945 115.088 148.786 114.692C149.162 114.612 149 113.926 148.628 114.007C146.891 114.38 145.114 114.393 143.373 114.047C142.999 113.972 142.838 114.657 143.215 114.732V114.733Z" fill="black"/>
<path d="M85.2575 106.694L88.742 106.999C89.0866 107.03 89.0853 106.332 88.742 106.306L85.2575 106.001C84.9135 105.971 84.9148 106.664 85.2575 106.694Z" fill="black"/>
<path d="M137.265 122.772L143.735 123C143.806 122.995 143.874 122.952 143.923 122.88C143.972 122.809 144 122.713 144 122.614C144 122.515 143.972 122.419 143.923 122.347C143.874 122.275 143.806 122.233 143.735 122.228L137.265 122C137.194 122.005 137.126 122.048 137.077 122.12C137.028 122.191 137 122.287 137 122.386C137 122.485 137.028 122.581 137.077 122.653C137.126 122.725 137.194 122.767 137.265 122.772V122.772Z" fill="black"/>
<path d="M109.252 120.504L114.748 120.999C115.085 121.029 115.083 120.526 114.748 120.496L109.252 120.001C108.915 119.971 108.917 120.474 109.252 120.504Z" fill="black"/>
<path d="M124.253 118.999L126.747 118.822C127.083 118.799 127.085 117.977 126.747 118.001L124.253 118.178C123.917 118.201 123.915 119.023 124.253 118.999Z" fill="black"/>
<path d="M163.307 106.666L167.692 106.999C168.104 107.03 168.101 106.365 167.692 106.334L163.307 106.001C162.897 105.97 162.898 106.635 163.307 106.666Z" fill="black"/>
<path d="M108.205 106.538L111.644 106.997C112 107.045 112.155 106.509 111.795 106.462L108.355 106.003C107.999 105.955 107.845 106.491 108.205 106.538Z" fill="black"/>
<path d="M99.3021 112L105.712 111.774C105.79 111.77 105.863 111.727 105.916 111.655C105.97 111.582 106 111.487 106 111.387C106 111.288 105.97 111.192 105.916 111.12C105.863 111.048 105.79 111.005 105.712 111L99.3021 111.226C99.222 111.226 99.1451 111.267 99.0885 111.34C99.0318 111.412 99 111.511 99 111.613C99 111.716 99.0318 111.814 99.0885 111.887C99.1451 111.959 99.222 112 99.3021 112V112Z" fill="black"/>
<path d="M106.237 125.949L110.763 126C110.827 125.994 110.887 125.941 110.931 125.853C110.975 125.765 111 125.648 111 125.526C111 125.404 110.975 125.287 110.931 125.198C110.887 125.11 110.827 125.057 110.763 125.051L106.237 125C106.173 125.006 106.113 125.059 106.069 125.147C106.025 125.235 106 125.352 106 125.474C106 125.596 106.025 125.713 106.069 125.802C106.113 125.89 106.173 125.943 106.237 125.949V125.949Z" fill="black"/>
<path d="M128.28 125.999L131.72 125.669C132.092 125.633 132.095 124.966 131.72 125.001L128.28 125.331C127.908 125.367 127.905 126.034 128.28 125.999Z" fill="black"/>
<path d="M77.27 118.613L81.7295 118.999C82.0912 119.03 82.0891 118.418 81.7295 118.387L77.27 118.001C76.909 117.97 76.911 118.582 77.27 118.613Z" fill="black"/>
<path d="M83.2354 112.662L86.7648 112.999C87.0793 113.028 87.0775 112.367 86.7648 112.338L83.2354 112.001C82.9209 111.972 82.9221 112.633 83.2354 112.662V112.662Z" fill="black"/>
<path d="M152.232 109H155.768C155.831 108.994 155.89 108.938 155.933 108.845C155.976 108.752 156 108.629 156 108.5C156 108.371 155.976 108.248 155.933 108.155C155.89 108.062 155.831 108.006 155.768 108H152.232C152.169 108.006 152.11 108.062 152.067 108.155C152.024 108.248 152 108.371 152 108.5C152 108.629 152.024 108.752 152.067 108.845C152.11 108.938 152.169 108.994 152.232 109Z" fill="black"/>
<path d="M91.7256 128.689C90.4242 128.241 89.0707 128.01 87.7091 128.005C86.468 127.961 85.2323 128.205 84.0797 128.722C83.6159 128.915 83.1966 129.223 82.8522 129.62C82.5079 130.018 82.2472 130.497 82.0891 131.022C81.9681 131.559 81.9704 132.121 82.0958 132.657C82.2213 133.193 82.4658 133.684 82.8066 134.086C83.6263 135.028 84.6425 135.727 85.7639 136.12C87.0428 136.625 88.3823 136.913 89.7377 136.974C91.0017 137.071 92.2707 136.897 93.476 136.46C93.9616 136.306 94.4142 136.044 94.8065 135.688C95.1988 135.333 95.5226 134.893 95.7584 134.393C95.8595 134.139 95.929 133.871 95.965 133.596C95.9657 133.582 95.9657 133.568 95.965 133.554C95.965 133.54 95.9748 133.53 95.9768 133.515C96.2765 130.862 93.6059 129.341 91.7256 128.689ZM90.6598 136.375C89.3972 136.41 88.1365 136.244 86.9156 135.882C85.7947 135.589 84.7371 135.05 83.8042 134.296C83.4406 134.025 83.1371 133.664 82.9168 133.242C82.6964 132.82 82.565 132.347 82.5325 131.86C82.5458 131.384 82.6714 130.92 82.8965 130.515C83.1217 130.11 83.4384 129.779 83.8147 129.556C84.7608 128.985 85.8139 128.671 86.8887 128.641C88.1456 128.557 89.4068 128.675 90.6336 128.992C91.7858 129.257 92.8853 129.754 93.8781 130.459C94.2688 130.708 94.6088 131.046 94.8768 131.45C95.1447 131.854 95.3346 132.316 95.4344 132.806C95.4594 133.025 95.4594 133.247 95.4344 133.466C95.1039 135.819 92.4011 136.324 90.6598 136.374V136.375Z" fill="black"/>
<path d="M147.216 93.5536L150.626 93.9969C151.001 94.0457 151.163 93.4959 150.784 93.4471L147.374 93.0031C146.999 92.9543 146.837 93.5048 147.216 93.5529V93.5536Z" fill="black"/>
<path d="M155.215 98.7322C157.06 99.1023 158.945 99.0887 160.786 98.692C161.162 98.6123 161 97.926 160.628 98.0066C158.891 98.3797 157.114 98.3933 155.373 98.0468C154.999 97.9714 154.838 98.6577 155.215 98.7322Z" fill="black"/>
<path d="M120.216 91.5526L123.625 91.9969C124 92.0458 124.163 91.4948 123.784 91.4467L120.374 91.0031C119.999 90.9542 119.837 91.5045 120.216 91.5533V91.5526Z" fill="black"/>
<path d="M172.215 98.7327C174.06 99.1021 175.945 99.0885 177.786 98.6924C178.162 98.6119 178 97.9217 177.628 98.0073C175.891 98.3806 174.114 98.3945 172.373 98.0484C171.999 97.9731 171.838 98.6582 172.215 98.7335V98.7327Z" fill="black"/>
<path d="M106.959 89.5838C106.943 89.5379 106.914 89.4976 106.876 89.4678C102.081 85.772 96.1634 83.8447 90.1179 84.0098C88.4402 84.0327 86.7756 84.2362 85.1028 84.3432C83.3253 84.4571 81.5437 84.5127 79.7628 84.5356C76.1844 84.5807 72.6066 84.4911 69.0261 84.4501C61.7279 84.3661 54.4248 84.4328 47.1259 84.4453C39.7543 84.4585 32.3813 84.5008 25.011 84.6537C17.6768 84.8092 10.344 85.076 3.02222 85.5379C2.10648 85.5962 1.1912 85.6571 0.276385 85.7205C-0.0907417 85.7462 -0.0935125 86.3234 0.276385 86.2977C7.52541 85.7928 14.7855 85.4851 22.0491 85.3003C29.3127 85.1155 36.579 85.051 43.8447 85.028C51.1103 85.0051 58.3829 85.019 65.6527 85.0058C72.7098 84.9933 79.7871 85.3989 86.8304 84.7877C89.9054 84.4548 93.0121 84.5621 96.057 85.1065C99.0424 85.6891 101.894 86.8227 104.466 88.4495C105.101 88.8545 105.713 89.292 106.307 89.7539L101.596 93.2574L93.8092 99.0543L92.1634 100.28C87.844 96.9522 82.5876 95.0767 77.1431 94.9202C75.6072 94.88 74.0709 94.9805 72.5533 95.2202C72.1882 95.2772 72.3455 95.8335 72.7064 95.7759C78.0093 94.9739 83.4291 95.8883 88.1784 98.3861C89.4815 99.0709 90.7202 99.8725 91.8794 100.781C91.7131 101.617 91.5905 102.462 91.5123 103.311C87.2067 99.6968 81.8236 97.6223 76.2121 97.4151C74.6334 97.3679 73.0539 97.4782 71.4969 97.7443C71.1326 97.8054 71.2891 98.3618 71.65 98.3C77.1045 97.4227 82.6942 98.4459 87.4877 101.199C88.8491 101.976 90.1342 102.88 91.3259 103.9C91.3339 103.905 91.3422 103.91 91.3509 103.914C91.3696 103.938 91.393 103.958 91.4196 103.972C91.4463 103.987 91.4756 103.996 91.5059 103.999C91.5362 104.002 91.5667 103.999 91.5957 103.989C91.6247 103.98 91.6514 103.965 91.6744 103.945L96.5696 100.234L104.362 94.3305L106.134 92.9872C106.192 92.9898 106.248 92.9694 106.292 92.9304C106.335 92.8914 106.361 92.837 106.364 92.7788C106.51 91.7759 106.718 90.7833 106.988 89.8067C106.999 89.7697 107.003 89.7305 106.998 89.692C106.993 89.6535 106.979 89.6166 106.959 89.5838V89.5838ZM105.838 92.501L100.958 96.2003L93.165 102.104L92.1454 102.878C92.2237 102.172 92.3262 101.47 92.4689 100.773L97.1972 97.2539L104.984 91.4577L106.224 90.5353C106.071 91.1847 105.937 91.8376 105.838 92.4982V92.501Z" fill="black"/>
<path d="M80.2716 81.9191C83.9671 82.3212 87.668 81.2147 90.6498 78.816C91.4816 78.1478 92.2447 77.3848 92.9261 76.5401C93.1668 76.2412 92.7633 75.7988 92.5205 76.1015C90.152 79.0201 86.862 80.8744 83.2962 81.3004C82.2916 81.4177 81.2783 81.4177 80.2737 81.3004C79.9074 81.2578 79.9102 81.8787 80.2737 81.9213L80.2716 81.9191Z" fill="black"/>
<path d="M71.2628 100.577C73.3188 100.787 75.3112 101.441 77.1152 102.496C78.9191 103.55 80.4957 104.984 81.7462 106.708C82.4481 107.677 83.0359 108.731 83.4969 109.848C83.6381 110.19 84.1149 109.895 83.9744 109.556C83.1011 107.507 81.834 105.67 80.2524 104.158C78.6707 102.646 76.8085 101.492 74.7821 100.769C73.6441 100.364 72.4631 100.106 71.2654 100.001C70.9105 99.9692 70.9125 100.549 71.2654 100.581L71.2628 100.577Z" fill="black"/>
<path d="M73.1515 103.504C75.2964 104.521 77.1164 106.027 78.4351 107.874C78.6436 108.167 79.1612 107.895 78.9505 107.6C77.5797 105.672 75.6863 104.099 73.4535 103.033C73.1127 102.872 72.8064 103.342 73.1515 103.504Z" fill="black"/>
<path d="M157.995 83.7924C158.068 82.9378 157.338 82.4395 156.768 82.2208C156.061 81.9159 155.289 81.9271 154.588 82.2523C154.452 82.3182 154.33 82.4223 154.233 82.5562C154.136 82.6901 154.066 82.85 154.03 83.023C153.993 83.1959 153.99 83.3769 154.022 83.5514C154.053 83.7258 154.118 83.8888 154.211 84.0269C154.467 84.3407 154.772 84.5882 155.109 84.7545C155.445 84.9207 155.806 85.0023 156.169 84.9942C156.828 85.0378 157.852 84.8514 157.986 83.8758C157.986 83.8615 157.986 83.8472 157.986 83.833C157.987 83.8187 157.995 83.8074 157.995 83.7924ZM156.39 84.3756C155.825 84.4104 155.264 84.2262 154.789 83.8495C154.477 83.5647 154.375 83.0904 154.768 82.8378C155.275 82.5871 155.837 82.5511 156.363 82.7356C156.764 82.8461 157.499 83.1182 157.477 83.7518C157.374 84.2869 156.77 84.3696 156.39 84.3756Z" fill="black"/>
<path d="M200.872 92.3672C201.16 91.9296 200.872 90.2907 200.872 89.7889C200.918 89.3334 200.936 88.8754 200.927 88.4176C201.056 87.4696 200.822 86.5076 200.27 85.7272C199.498 84.6123 198.143 84.3336 196.88 84.1886C195.111 83.9831 193.347 83.7392 191.582 83.4981L179.673 81.8745L155.864 78.6273L131.967 75.3683C130.254 75.0798 128.516 74.9603 126.779 75.0116C125.161 75.1011 123.567 75.4507 122.06 76.047C120.428 76.7748 118.877 77.6725 117.433 78.7256C115.816 79.8105 114.213 80.9185 112.608 82.0222C111.817 82.5657 111.026 83.1074 110.234 83.6472C110.175 83.6862 110.133 83.7455 110.114 83.8138C110.096 83.8821 110.104 83.9547 110.135 84.0179L104.635 87.7584C104.818 87.8588 104.999 87.9675 105.176 88.0887L110.195 84.6743C110.386 85.3711 111.281 85.6673 112.027 85.7112C113.659 85.808 114.564 84.3503 116.026 83.958C117.533 83.5538 118.316 84.8464 119.204 85.8011C119.588 86.274 120.101 86.6242 120.681 86.8086C121.26 86.9931 121.88 87.0037 122.466 86.8393C124.02 86.4212 125.335 85.0367 127.018 85.1488C128.531 85.2492 129.554 86.5007 130.793 87.2107C134.103 89.1089 136.73 84.7928 140.077 85.6861C141.927 86.1801 143.322 87.6156 145.028 88.4148C145.7 88.7455 146.44 88.9117 147.188 88.8995C147.936 88.8874 148.671 88.6974 149.331 88.3451C150.844 87.6302 152.504 86.5899 154.134 87.6156C155.518 88.4866 156.291 90.083 157.769 90.8384C159.326 91.6341 160.944 91.0683 162.419 90.3785C163.345 89.8512 164.362 89.5042 165.416 89.3555C166.322 89.3168 167.217 89.5602 167.979 90.0524C169.505 90.9847 170.697 92.5686 172.534 92.9337C174.389 93.3023 175.89 92.0341 177.567 91.4969C178.009 91.3436 178.478 91.2815 178.945 91.3144C179.412 91.3474 179.868 91.4746 180.285 91.6885C181.16 92.1233 181.881 92.8124 182.748 93.2661C184.622 94.2493 186.447 93.604 188.38 93.1873C189.558 92.9757 190.771 93.0916 191.888 93.5225C192.298 93.666 193.019 93.9099 193.207 94.3587C193.465 94.9858 192.319 95.6129 191.941 95.8749C190.087 97.1592 188.16 98.3466 186.293 99.6155L180.276 103.709L168.243 111.904L144.144 128.295C142.315 129.54 140.368 130.698 138.642 132.083C138.294 132.42 137.885 132.689 137.438 132.875C137.028 132.965 136.603 132.975 136.189 132.904C135.279 132.802 134.393 132.544 133.5 132.352C131.298 131.881 129.002 131.704 126.768 131.399L119.58 130.419L90.9654 126.517L62.1073 122.581L55.7349 121.712L87.3087 100.238C87.1206 100.13 86.9284 100.029 86.7368 99.9297L66.9618 113.378L54.8042 121.645C54.768 121.674 54.7384 121.71 54.7172 121.752C54.696 121.793 54.6838 121.838 54.6814 121.884C54.6395 121.849 54.587 121.829 54.5324 121.828C54.4778 121.827 54.4243 121.844 54.3809 121.877C52.5924 123.093 50.797 124.297 49.0065 125.509C48.1362 126.099 47.2678 126.691 46.4012 127.285C45.7097 127.707 45.0622 128.197 44.4684 128.749C43.6584 129.592 43.1903 130.708 43.1553 131.879C43.07 131.863 43.0054 131.93 43.0054 132.174V134.492C42.9909 134.857 43.0055 135.223 43.0492 135.587C43.0294 135.635 43.0234 135.689 43.0318 135.741C43.5953 139.163 48.123 139.434 50.8297 139.636C56.2755 140.042 61.6992 140.99 67.1096 141.727L104.811 146.869C110.273 147.614 115.8 148.864 121.197 147.107C123.725 146.181 126.108 144.898 128.276 143.298C130.871 141.539 133.464 139.776 136.055 138.01C146.589 130.852 157.124 123.696 167.66 116.542L183.443 105.821C186.053 104.048 188.648 102.255 191.274 100.505C193.713 98.8796 196.232 97.3696 198.566 95.5906C199.516 94.9312 200.268 94.0225 200.739 92.9636C200.766 92.9018 200.771 92.8329 200.755 92.7677C200.738 92.7024 200.701 92.6444 200.648 92.6027C200.74 92.5433 200.817 92.4625 200.872 92.3672ZM190.787 92.6459C190.277 92.539 189.758 92.486 189.237 92.4877C188.403 92.5698 187.579 92.7384 186.779 92.9908C185.617 93.3683 184.36 93.3249 183.226 92.8682C182.346 92.4501 181.63 91.7756 180.78 91.3045C179.283 90.4732 177.879 90.6892 176.373 91.3596C175.389 91.7979 174.4 92.4271 173.292 92.4348C172.318 92.3774 171.388 92.0062 170.64 91.3763C169.225 90.3408 167.992 88.9988 166.155 88.7981C164.203 88.589 162.656 89.7966 160.896 90.3924C160.426 90.5826 159.922 90.6714 159.415 90.653C158.909 90.6347 158.413 90.5095 157.958 90.2858C157.195 89.7987 156.517 89.1887 155.951 88.4803C154.932 87.3863 153.781 86.4198 152.192 86.6212C150.626 86.8198 149.409 87.9068 147.904 88.2685C145.923 88.7437 144.2 87.2707 142.64 86.2763C141.191 85.353 139.59 84.6736 137.857 85.1224C136.124 85.5711 134.67 87.01 132.86 87.1529C131.352 87.272 130.293 86.0888 129.131 85.3342C128.553 84.9286 127.88 84.6814 127.178 84.6167C126.476 84.5521 125.769 84.6723 125.127 84.9656C123.754 85.5593 122.096 86.971 120.537 86.1571C119.447 85.5878 118.941 84.3127 117.904 83.6681C116.569 82.841 115.23 83.5935 114.087 84.3789C113.541 84.8345 112.863 85.1004 112.153 85.137C111.617 85.1245 110.557 84.9746 110.745 84.2151C110.753 84.1813 110.755 84.1461 110.749 84.1117C110.744 84.0772 110.731 84.0444 110.712 84.0151C113.761 81.9372 116.755 79.7562 119.882 77.7988C122.69 76.0799 125.975 75.3138 129.251 75.6136C131.147 75.7578 133.039 76.0916 134.923 76.3488L140.608 77.1243L152.157 78.6991L175.077 81.8243C182.45 82.8298 189.834 83.7754 197.204 84.806C197.876 84.8662 198.528 85.0683 199.117 85.399C199.471 85.6579 199.767 85.9896 199.985 86.3721C200.202 86.7546 200.337 87.1792 200.378 87.6177C200.328 87.6441 200.296 87.7382 200.296 87.9417V88.5772C200.198 88.9607 200.038 89.3255 199.823 89.6573C198.643 91.4941 196.502 92.6194 194.691 93.7225C194.387 93.9083 194.086 94.0985 193.789 94.2932C193.748 94.1527 193.682 94.0211 193.594 93.905C192.995 93.1009 191.708 92.8159 190.787 92.6438V92.6459ZM43.9465 130.616C44.4927 129.14 45.8342 128.374 47.0654 127.531C48.7497 126.375 50.4438 125.235 52.1365 124.093C52.9832 123.523 53.8289 122.951 54.6738 122.378C54.7139 122.351 54.7464 122.315 54.7683 122.272C54.7902 122.229 54.8007 122.181 54.7987 122.133C54.8237 122.148 54.8403 122.17 54.8743 122.174L84.0045 126.146L113.056 130.108L127.56 132.086C129.73 132.383 131.933 132.579 134.07 133.077C134.864 133.299 135.677 133.442 136.499 133.502C131.433 137.041 126.553 141.215 120.601 143.13C119.08 143.63 117.501 143.931 115.904 144.026C114.079 144.052 112.255 143.908 110.457 143.596C106.277 143.042 102.098 142.481 97.92 141.91C89.6035 140.777 81.2889 139.633 72.9761 138.479C64.7119 137.343 56.4358 136.29 48.1793 135.106C46.8072 134.91 45.195 134.87 44.2769 133.658C43.9724 133.22 43.7825 132.711 43.7248 132.18C43.6671 131.648 43.7433 131.11 43.9465 130.616V130.616ZM200.244 92.6738C199.645 94.0869 198.567 94.9036 197.355 95.776C196.222 96.5927 195.055 97.3599 193.885 98.1194C191.362 99.7555 188.874 101.439 186.39 103.128L171.133 113.492L140.422 134.352C137.893 136.071 135.363 137.79 132.833 139.509C130.374 141.181 127.953 142.959 125.417 144.513C123.187 145.899 120.708 146.831 118.12 147.256C115.302 147.7 112.558 147.35 109.758 146.968L73.1177 141.971L54.9347 139.492C53.1941 139.254 51.4605 139.138 49.713 138.967C48.0751 138.807 46.1902 138.586 44.8154 137.591C44.4959 137.364 44.2243 137.076 44.0162 136.743C43.8081 136.41 43.6677 136.039 43.603 135.651C43.7016 134.989 43.696 134.316 43.5863 133.656C43.7951 134.022 44.0728 134.344 44.4039 134.604C44.8873 134.979 45.4488 135.24 46.0466 135.366C47.0182 135.582 48.0342 135.669 49.019 135.808C51.1223 136.105 53.2274 136.394 55.3345 136.675C59.6526 137.255 63.9721 137.826 68.2888 138.417C76.8759 139.593 85.4626 140.775 94.0489 141.962C98.3055 142.546 102.565 143.123 106.828 143.694C110.545 144.191 114.317 145.012 118.064 144.359C124.735 143.199 130.23 138.68 135.593 134.847C136.253 134.375 136.918 133.908 137.59 133.454C137.631 133.425 137.664 133.387 137.686 133.342C137.975 133.252 138.247 133.115 138.492 132.937C142.3 130.105 146.309 127.523 150.234 124.854L162.4 116.579L186.698 100.052C188.557 98.7869 190.492 97.6128 192.328 96.3209C192.887 95.9921 193.362 95.5375 193.716 94.9928C193.763 94.9894 193.808 94.9735 193.847 94.9468C195.651 93.7301 197.635 92.7699 199.225 91.2537C199.63 90.8756 199.99 90.4522 200.299 89.9917V90.7046C200.253 91.3183 200.307 91.9355 200.459 92.5316C200.413 92.5292 200.367 92.5417 200.328 92.5673C200.29 92.5929 200.26 92.6301 200.244 92.6738V92.6738Z" fill="black"/>
<path d="M32.7349 24.4967C31.9243 21.4048 29.0028 18.2426 25.5722 19.1618C22.3404 20.0247 21.2839 23.8376 21.8464 26.8522C21.6149 26.8194 21.3791 26.8379 21.1553 26.9061C20.9314 26.9744 20.7247 27.091 20.5494 27.2478C20.3741 27.4046 20.2342 27.598 20.1394 27.8147C20.0446 28.0315 19.9971 28.2664 20.0001 28.5035C20.0001 30.2118 22.0224 30.5969 22.9424 29.663C23.2596 30.1832 23.633 30.6659 24.0557 31.1021C23.5389 32.7099 22.3009 33.9966 21.455 35.435C20.9513 36.2916 20.6313 36.9149 21.5083 37.553C21.9524 37.8343 22.4632 37.9885 22.9866 37.9994C23.5101 38.0103 24.0267 37.8774 24.4817 37.6148C25.6768 36.7343 26.276 34.2889 26.5781 32.6959C27.3339 32.926 28.1349 32.9572 28.9059 32.7865C32.4861 31.9981 33.5655 27.6666 32.7349 24.4967Z" fill="#FFAF66"/>
<path d="M33.8094 24.2451C33.3803 21.5791 32.1502 18.8153 30.0217 17.1755C29.0304 16.3962 27.8184 15.9828 26.5767 16.0005C25.1664 16.0707 23.8102 16.5873 22.689 17.4816C20.4966 19.1824 19.3787 21.8753 18.1159 24.3159C17.5189 25.5587 16.7716 26.7166 15.8922 27.7614C15.1219 28.4752 14.3112 29.1401 13.4645 29.7528C13.1891 29.9937 12.7621 30.3303 12.709 30.7329C12.7061 30.9573 12.7675 31.1775 12.8853 31.3654C13.0032 31.5532 13.1722 31.7002 13.3707 31.7873C13.5012 31.8764 13.6408 31.9501 13.7869 32.007C13.7597 32.0226 13.7495 31.8136 13.7549 31.815C13.6174 31.8953 13.4842 31.9833 13.3557 32.0786C12.9069 32.3202 12.4003 32.4202 11.9461 32.6526C11.7082 32.7468 11.5003 32.9085 11.346 33.1194C11.1916 33.3303 11.097 33.5819 11.0727 33.8459C11.0484 34.1099 11.0955 34.3757 11.2086 34.6133C11.3218 34.8509 11.4964 35.0508 11.7128 35.1903C11.8969 35.3024 12.0921 35.3934 12.2949 35.4617C12.4147 35.5009 12.5312 35.5505 12.6431 35.6098C12.6818 35.7424 12.3867 35.9741 12.2765 36.0407C11.9907 36.1735 11.7203 36.3399 11.4707 36.5368C11.2347 36.7493 11.076 37.0399 11.0212 37.3599C10.9663 37.6798 11.0187 38.0097 11.1695 38.2942C11.6058 38.815 12.2031 39.1605 12.858 39.2708C13.5685 39.426 14.2898 39.5225 15.015 39.5592C15.8045 39.6223 16.5899 39.7243 17.3787 39.8008C19.2687 40.0017 21.1706 40.0507 23.0678 39.9475C24.5948 39.9159 26.105 39.609 27.5315 39.0405C32.1869 36.9457 34.178 31.0184 33.9876 26.072C33.9633 25.4587 33.9038 24.8474 33.8094 24.2415C33.7516 23.8681 33.2069 24.0289 33.2654 24.3982C33.6206 26.8349 33.4234 29.3245 32.6894 31.6676C32.0307 34.0465 30.6547 36.1414 28.765 37.6423C27.7894 38.3587 26.6754 38.8446 25.5009 39.066C23.7148 39.3736 21.9023 39.4827 20.0941 39.3912C18.4226 39.3338 16.7715 39.1078 15.1068 38.9746C14.4019 38.9409 13.7006 38.8489 13.0096 38.6996C12.5656 38.5897 11.5863 38.3134 11.5462 37.7146C11.4945 36.9464 12.2629 36.7855 12.7199 36.439C13.0259 36.2065 13.3693 35.7013 13.1279 35.3051C12.9287 34.982 12.4874 34.9324 12.1793 34.78C12.075 34.7379 11.9798 34.6747 11.8991 34.594C11.8184 34.5134 11.7539 34.4168 11.7092 34.31C11.6645 34.2032 11.6405 34.0883 11.6387 33.9718C11.6369 33.8553 11.6572 33.7395 11.6985 33.6313C11.893 33.199 12.4744 33.0459 12.8682 32.9056C13.3423 32.7844 13.784 32.553 14.1602 32.2288C14.8701 31.4727 13.2231 31.3983 13.2721 30.7959C13.266 30.8703 13.3102 30.7421 13.3319 30.7109C13.3822 30.643 13.4372 30.579 13.4965 30.5195C13.6666 30.3434 13.8464 30.1778 14.0351 30.0235C14.4649 29.6628 14.9191 29.3318 15.3618 28.991C16.2058 28.3228 16.9288 27.5033 17.4971 26.5709C18.9251 24.3351 19.8091 21.7414 21.4079 19.6204C22.9787 17.5412 25.609 15.9559 28.1911 16.8268C30.5548 17.6241 32.0672 20.1292 32.8152 22.4656C33.0152 23.0959 33.1682 23.7413 33.2729 24.396C33.3246 24.7744 33.8693 24.6164 33.8094 24.2451Z" fill="black"/>
<path d="M27.677 36.3898C29.3658 34.6443 32.2172 39.2685 33.0828 40.2583C33.5358 40.7758 35.0706 43.1291 35.7515 43.2024C36.496 43.2816 37.7544 41.8357 38.3278 41.4497C40.2212 40.1772 42.8092 38.6934 45.1521 38.4082C48.4162 38.011 46.5823 41.258 45.4943 42.4278C42.9433 45.1756 37.0222 49.816 33.1601 47.2541C31.3101 45.9181 29.735 44.266 28.5145 42.3813C27.5388 40.9106 26.1551 37.9626 27.677 36.3898Z" fill="#FFAF66"/>
<path d="M58.217 34.9577C57.7875 28.5185 57.4918 22.0793 57.242 15.6297C57.1726 13.8156 57.1164 12.0009 57.0338 10.1868C56.9139 8.38403 56.8907 6.57616 56.9644 4.77093C57.0074 4.17825 57.0879 3.59041 57.1032 2.99565C57.1178 2.47497 57.1684 1.69534 56.7382 1.31107C56.6693 1.23567 56.5828 1.1785 56.4863 1.14465C56.3899 1.11081 56.2865 1.10135 56.1855 1.11713C56.0845 1.13291 55.989 1.17343 55.9075 1.23506C55.8261 1.2967 55.7612 1.37753 55.7187 1.47031C55.6765 1.3317 55.5899 1.2107 55.4722 1.12581C55.3545 1.04091 55.2122 0.996787 55.0671 1.00018C54.6292 1.02788 54.4848 1.58802 54.3967 1.93145C54.3863 1.9716 54.3821 2.01245 54.3731 2.05261C54.3627 2.02146 54.3557 1.98892 54.3453 1.95776C54.2544 1.68703 54.1267 1.25914 53.7901 1.21898C53.3738 1.16982 53.2523 1.73135 53.1892 2.02977C53.1088 2.45241 53.0801 2.88322 53.1038 3.31276C53.1114 3.57933 53.2148 5.52425 52.5556 5.20852C52.4258 5.14621 52.321 4.98142 52.2086 4.8921C52.1328 4.82253 52.042 4.77114 51.9433 4.74187C51.8445 4.71259 51.7404 4.70619 51.6388 4.72316C51.5343 4.75311 51.4372 4.80433 51.3535 4.87357C51.2699 4.94281 51.2014 5.02858 51.1526 5.12549C51.1038 5.2224 51.0756 5.32834 51.0698 5.43665C51.064 5.54495 51.0808 5.65328 51.119 5.75481C51.2995 6.21041 51.7741 6.45551 52.0011 6.88548C52.2756 7.49915 52.4143 8.16465 52.4077 8.83663C52.4862 10.3474 52.6159 11.8527 52.7735 13.3579C52.931 14.8632 53.1552 16.3664 53.2946 17.8751C53.3601 18.4182 53.3647 18.967 53.3085 19.5112C53.4312 19.4809 53.5416 19.4134 53.6243 19.318C53.947 19.0051 54.2051 18.4768 54.6562 18.3293C55.3412 18.1056 55.6389 19.0341 55.7839 19.5105C56.1202 20.6765 56.3333 21.8744 56.4196 23.0846C56.5363 24.3459 56.5375 25.6153 56.4231 26.8768C56.4317 27.3717 56.3419 27.8633 56.1589 28.3233C55.976 28.7834 55.7035 29.2027 55.3571 29.5571C54.0532 30.6538 52.1204 30.4703 50.5298 30.5956C49.091 30.7412 47.643 30.7768 46.1987 30.7023C45.2577 30.633 43.2084 30.4412 43.325 29.0696C43.325 28.2655 43.3277 27.4614 43.3333 26.6573C43.3423 25.0711 43.3604 23.4848 43.4027 21.8992C43.42 21.2068 43.454 20.5145 43.4617 19.8221C43.4435 19.4069 43.4858 18.9913 43.5873 18.5882C43.6322 18.4067 43.7212 18.2391 43.8465 18.1001C43.9717 17.9611 44.1294 17.855 44.3056 17.7913C44.4937 17.7293 44.695 17.719 44.8885 17.7612C45.082 17.8035 45.2606 17.8969 45.4055 18.0316C45.4381 18.0682 45.4685 18.1068 45.4964 18.1472C45.4388 17.7255 45.375 17.3052 45.3243 16.8836C45.1335 15.298 44.985 13.7069 44.8538 12.1151C44.6398 10.7487 44.5983 9.36098 44.7303 7.98431C44.8247 7.44485 44.988 6.91968 45.2161 6.42158C45.368 6.0927 45.563 5.65096 45.3084 5.32C45.2383 5.24408 45.1534 5.1834 45.0588 5.14177C44.9642 5.10014 44.862 5.07845 44.7586 5.07806C44.6552 5.07767 44.5528 5.09859 44.4579 5.13951C44.363 5.18042 44.2776 5.24045 44.207 5.31584C44.0821 5.43839 43.9988 5.63711 43.8552 5.73751C43.7899 5.7832 43.8073 5.78667 43.7518 5.73751C43.6393 5.61742 43.5468 5.48022 43.4776 5.33107C43.3714 5.08987 43.2842 4.84078 43.2167 4.58606C43.0585 4.03838 42.9447 3.47824 42.8114 2.92433C42.742 2.6363 42.6803 2.11077 42.386 1.95083C41.9002 1.68703 41.7614 2.46666 41.708 2.76439C41.4998 2.22156 41.2049 1.75419 40.7288 1.87952C40.606 1.9241 40.4981 2.00195 40.4172 2.10432C40.3363 2.20668 40.2856 2.32952 40.2708 2.45905C40.2498 2.42149 40.2266 2.3852 40.2014 2.35034C39.6934 1.78812 39.0764 2.41958 39.0056 2.97903C38.9724 3.7901 39.0862 4.6005 39.3415 5.37123C39.5726 6.28865 39.7746 7.19498 39.9272 8.13109C40.3846 10.9818 40.6018 13.8658 40.5768 16.7527C40.5581 19.7348 40.5296 22.7169 40.5331 25.6998C40.54 31.6224 40.6198 37.5444 40.7725 43.4657C40.8109 44.9428 40.8535 46.4216 40.9002 47.9019C40.9335 48.9515 41.0106 50.006 40.98 51.0564C40.9578 51.8284 40.9273 52.6018 40.9509 53.3745C40.9634 53.79 40.8974 54.7413 41.386 54.9435C41.5668 54.9954 41.758 55.0002 41.9412 54.9573C42.1642 54.9352 42.389 54.9401 42.6109 54.9719C43.2483 55.018 43.8886 55.0074 44.5242 54.94C45.8996 54.8299 47.2744 54.8015 48.654 54.769L57.4925 54.5474L59.7098 54.492C59.8486 54.492 60.0179 54.3626 59.9985 54.2047C59.2115 47.8105 58.6466 41.3879 58.217 34.9577Z" fill="#F36B73"/>
<path d="M56 30.5067C56 27.3824 55.4596 24.61 51.9225 24.1173C48.8113 23.6844 45.4991 24.3432 45.0976 27.8997C44.731 31.1599 45.2854 35.2112 48.6961 36.6196C52.6808 38.2658 56 34.2617 56 30.5067Z" fill="#FFE993"/>
<path d="M53.3457 85.3024C52.5687 84.9121 51.7608 84.5974 50.9317 84.362C50.4963 84.2382 48.6455 84.1849 48.3944 83.8945C48.2661 83.5822 48.2188 83.2383 48.2576 82.8994C48.1571 82.3764 48.1121 81.8428 48.1234 81.3089C48.0874 80.2142 48.1234 79.0961 48.0207 78C47.1216 78.103 46.2193 78.1549 45.3183 78.2358C44.7911 78.2835 44.2638 78.3388 43.7379 78.4052C43.4867 78.4094 43.2377 78.4561 43 78.5435C43.1875 81.3269 43.1927 84.1192 43.2716 86.9109C43.8753 87.1737 45.9958 86.7726 46.5276 86.7615L49.5523 86.6862C50.6607 86.6585 51.8102 86.7235 52.9135 86.6025C53.7362 86.5119 54.6507 85.9594 53.3457 85.3024Z" fill="#F36B73"/>
<path d="M65.682 84.396C64.8007 84.1055 62.2073 83.715 61.5876 83.0467C61.3155 82.7522 61.3717 82.0739 61.3398 81.7034C61.201 80.139 61.1684 78.5665 61.0372 77C60.0411 77.0742 59.0488 77.1761 58.0601 77.3058C57.3838 77.3278 56.7126 77.4258 56.06 77.5977C55.8831 77.7789 56.1523 78.9909 56.1669 79.2261C56.2335 80.3144 56.2902 81.4027 56.3369 82.491C56.3605 83.0414 56.3816 83.5913 56.4001 84.1408C56.4327 85.1089 56.1752 85.2475 57.0087 85.4934C58.7874 86.0184 61.4501 85.6699 63.3183 85.7466C64.0234 85.7752 66.0943 86.2083 66.6793 85.8738C67.5551 85.3761 66.4405 84.6458 65.682 84.396Z" fill="#F36B73"/>
<path d="M45 42.5C44.9908 42.6359 44.9341 42.7629 44.8413 42.8557C44.7486 42.9484 44.6266 43 44.5 43C44.3734 43 44.2514 42.9484 44.1587 42.8557C44.0659 42.7629 44.0092 42.6359 44 42.5C44.0092 42.3641 44.0659 42.2371 44.1587 42.1443C44.2514 42.0516 44.3734 42 44.5 42C44.6266 42 44.7486 42.0516 44.8413 42.1443C44.9341 42.2371 44.9908 42.3641 45 42.5V42.5Z" fill="white"/>
<path d="M56 42.5C55.9908 42.6359 55.9341 42.7629 55.8413 42.8557C55.7486 42.9484 55.6266 43 55.5 43C55.3734 43 55.2514 42.9484 55.1587 42.8557C55.0659 42.7629 55.0092 42.6359 55 42.5C55.0092 42.3641 55.0659 42.2371 55.1587 42.1443C55.2514 42.0516 55.3734 42 55.5 42C55.6266 42 55.7486 42.0516 55.8413 42.1443C55.9341 42.2371 55.9908 42.3641 56 42.5V42.5Z" fill="white"/>
<path d="M59.9278 58.7809C59.9197 58.5473 59.9318 58.271 59.9492 57.98C59.8737 57.0011 59.8045 56.0222 59.7415 55.0434C59.7314 55.0267 59.716 55.0167 59.7053 55C53.4802 55.2122 47.221 54.9393 41.0275 55.5907C41.0181 55.6234 41.008 55.6514 41 55.6881C41.0891 57.0576 41.134 58.4278 41.1535 59.7987C41.1756 60.0356 41.1957 60.2705 41.2084 60.4974C41.5422 66.6652 41.8772 72.8327 42.2136 79C43.8609 78.8605 45.5054 78.6883 47.154 78.5528C47.9146 78.4901 48.1632 78.5729 48.3107 78.3766C48.2209 75.7107 48.4157 73.0428 48.8917 70.4178C49.0175 68.8805 49.4396 67.3818 50.1348 66.0036C51.831 62.9268 53.9212 65.4309 54.5344 67.7255C55.3506 70.7815 55.3453 74.2067 55.5718 77.3408C57.3738 77.0485 59.1799 76.8449 61 76.7181C60.5115 70.7455 60.1342 64.7682 59.9278 58.7809Z" fill="black"/>
<path d="M31.975 50.4507C31.7187 49.2699 30.1853 48.8164 29.9732 47.6252C29.9917 46.809 30.26 46.0201 30.7396 45.3719C31.246 44.601 31.5383 43.701 31.5845 42.77C31.608 40.6585 30.3181 38.754 29.3102 37.021C28.8471 36.225 28.4847 35.3818 28.0452 34.5761C27.7138 34.0063 27.1887 33.5851 26.5728 33.3953C25.6434 33.0486 24.6493 32.9276 23.6675 33.0416C22.6857 33.1557 21.7423 33.5017 20.9102 34.0531C20.3989 34.3886 19.5681 34.8991 19.501 35.5999C19.4967 35.8796 19.538 36.1581 19.6231 36.4237C19.7538 36.9373 19.8138 37.4673 19.8016 37.9983C19.7532 39.0292 19.4627 40.0324 18.9554 40.9211C18.7306 41.356 18.4532 41.7596 18.13 42.122C17.8333 42.4339 17.4857 42.6874 17.1757 42.984C16.6318 43.5624 16.2996 44.3188 16.2362 45.1233C16.0811 46.063 15.8697 46.9799 15.6684 47.9106C15.5161 48.6135 15.3691 49.3158 15.2134 50.018C15.0251 50.5875 14.9602 51.1929 15.0235 51.7912C15.1665 52.3809 15.9845 52.4164 16.4516 52.5101C17.3194 52.748 18.1293 53.1715 18.8292 53.7534C19.6069 54.3523 20.3046 55.0551 20.9042 55.8434C21.426 56.6002 21.8781 57.4059 22.2544 58.2501C22.4372 58.6059 22.6525 58.9427 22.8973 59.2559C22.911 59.3877 22.955 59.5142 23.0254 59.6249C23.0958 59.7356 23.1908 59.8273 23.3023 59.8925C23.4139 59.9576 23.5388 59.9942 23.6668 59.9994C23.7948 60.0045 23.9221 59.978 24.0382 59.922C24.7295 59.8014 25.4072 59.6082 26.0608 59.3455C26.2283 59.2406 26.3702 59.0972 26.4755 58.9264C26.5808 58.7556 26.6467 58.562 26.6681 58.3606C26.8109 57.5666 27.0413 56.7921 27.3546 56.0525C27.7016 55.2698 28.136 54.532 28.6492 53.8541C29.0523 53.2863 29.5418 52.7899 30.0987 52.3844C30.5369 52.1017 30.9959 51.8517 31.4201 51.546C31.8039 51.2682 32.0878 50.973 31.975 50.4507Z" fill="#FFD400"/>
<path d="M19.8354 48.6841C18.5931 47.7601 17.5449 48.0965 16.5236 48.7664C15.9435 46.8313 13.9958 44.377 13.4165 43.5982C17.2736 43.1571 20.9948 38.9379 19.397 35C16.3586 36.3489 13.3704 37.806 10.3462 39.1871C8.96791 39.8151 7.78299 40.2604 8.03372 41.9701C8.23557 43.3435 9.26396 44.862 10.0239 45.9918C10.7605 47.086 12.636 50.278 14.4803 51.0421C14.4717 51.2628 14.5485 51.4786 14.6953 51.6456C14.842 51.8126 15.0477 51.9184 15.2707 51.9416C16.2275 52.1377 16.627 51.435 17.6313 52.017C17.9238 52.1866 18.9444 53.5264 19.3248 52.7707C19.5372 52.352 18.8141 51.4217 18.4557 51.2396C18.8863 51.3233 20.4388 52.3848 20.2752 51.3275C20.1874 50.749 19.2589 50.5655 18.9728 50.1181C19.4558 50.1824 20.5812 50.8558 20.9438 50.2738C21.2618 49.7629 20.1393 48.9151 19.8354 48.6841Z" fill="#FFAF66"/>
<path d="M18.4637 71H18.5363C18.6614 70.9937 18.7792 70.9383 18.8655 70.8452C18.9519 70.7521 19 70.6285 19 70.5C19 70.3715 18.9519 70.2479 18.8655 70.1548C18.7792 70.0617 18.6614 70.0063 18.5363 70H18.4637C18.3386 70.0063 18.2208 70.0617 18.1345 70.1548C18.0481 70.2479 18 70.3715 18 70.5C18 70.6285 18.0481 70.7521 18.1345 70.8452C18.2208 70.9383 18.3386 70.9937 18.4637 71V71Z" fill="black"/>
<path d="M28 69.4637V69.5363C28.0063 69.6614 28.0617 69.7792 28.1548 69.8655C28.2479 69.9518 28.3715 70 28.5 70C28.6285 70 28.7521 69.9518 28.8452 69.8655C28.9383 69.7792 28.9937 69.6614 29 69.5363V69.4637C28.9937 69.3386 28.9383 69.2208 28.8452 69.1344C28.7521 69.0481 28.6285 69 28.5 69C28.3715 69 28.2479 69.0481 28.1548 69.1344C28.0617 69.2208 28.0063 69.3386 28 69.4637V69.4637Z" fill="black"/>
<path d="M49.4323 43H49.5677C49.6843 42.9937 49.7942 42.9383 49.8746 42.8452C49.9551 42.7521 50 42.6285 50 42.5C50 42.3715 49.9551 42.2479 49.8746 42.1548C49.7942 42.0617 49.6843 42.0063 49.5677 42H49.4323C49.3157 42.0063 49.2058 42.0617 49.1254 42.1548C49.0449 42.2479 49 42.3715 49 42.5C49 42.6285 49.0449 42.7521 49.1254 42.8452C49.2058 42.9383 49.3157 42.9937 49.4323 43V43Z" fill="black"/>
<path d="M51.4323 46H51.5677C51.6843 45.9937 51.7942 45.9383 51.8746 45.8452C51.9551 45.7521 52 45.6285 52 45.5C52 45.3715 51.9551 45.2479 51.8746 45.1548C51.7942 45.0617 51.6843 45.0063 51.5677 45H51.4323C51.3157 45.0063 51.2058 45.0617 51.1254 45.1548C51.0449 45.2479 51 45.3715 51 45.5C51 45.6285 51.0449 45.7521 51.1254 45.8452C51.2058 45.9383 51.3157 45.9937 51.4323 46Z" fill="black"/>
<path d="M48 33.2586C48.6414 33.4722 49.3451 33.5605 50.0448 33.5153C50.7446 33.4701 51.4174 33.2927 52 33C51.8928 33.8307 51.6007 34.9475 50.2294 34.9987C48.915 35.0418 48.4345 33.9819 48 33.2586Z" fill="#F36B73"/>
<path d="M48.1552 33.885C48.7462 34.1643 49.3949 34.2825 50.0411 34.2285C50.6873 34.1745 51.31 33.9502 51.8514 33.5763L51.4072 33.3086C51.3361 34.0982 51.1548 35.3218 50.1988 35.3815C49.2427 35.4411 48.8731 34.1974 48.5639 33.4607C48.4096 33.0976 47.9007 33.4122 48.0535 33.7739C48.4985 34.823 49.0423 36.1696 50.3701 35.9824C51.6041 35.8087 51.8969 34.3957 52 33.3086C51.9995 33.2543 51.9855 33.2011 51.9593 33.1542C51.9331 33.1073 51.8958 33.0685 51.8509 33.0414C51.806 33.0144 51.7551 33.0001 51.7034 33C51.6516 32.9999 51.6007 33.014 51.5557 33.0409C51.1054 33.3605 50.5857 33.5562 50.0444 33.6102C49.5031 33.6641 48.9576 33.5745 48.458 33.3496C48.1068 33.19 47.8061 33.7232 48.1552 33.885Z" fill="#F36B73"/>
<path d="M22.9943 84.4088C22.8875 77.8508 22.8322 71.2922 22.7442 64.7335C22.7239 63.2623 22.9689 61.5169 22.5581 60.1241C22.1196 59.007 21.4834 57.9688 20.6767 57.0542C19.1774 54.9995 16.9188 53.5527 14.3478 53C15.3283 63.5573 16.9637 74.0507 19.2453 84.426C17.7187 84.5562 15.617 85.3903 14.0839 85.9578C11.7161 86.8354 13.788 87.1198 15.0078 86.9559C16.336 86.7775 17.6627 86.5881 18.9829 86.3635C20.4594 86.1121 23.1397 86.2774 22.9943 84.4088Z" fill="#FFAF66"/>
<path d="M57.3672 27.893C57.3958 27.7029 57.4195 27.5141 57.4369 27.3301C57.5565 26.0729 57.5565 24.8076 57.4369 23.5503C57.3503 22.3403 57.132 21.1427 56.7855 19.9776C56.6824 19.4477 56.3807 18.9741 55.9391 18.6489C55.8291 18.5938 55.7088 18.5611 55.5854 18.5528C55.4621 18.5446 55.3383 18.5608 55.2216 18.6007C54.8544 18.7533 54.5425 19.0096 54.3264 19.3367C54.243 19.4461 54.1522 19.55 54.0547 19.6477C54.0274 19.674 53.9986 19.6987 53.9683 19.7217C53.8539 19.5616 53.771 19.3823 53.7238 19.1928C53.6311 18.9171 53.4395 18.3441 52.8181 18.3101C52.5379 18.3285 52.2649 18.4051 52.0175 18.5347C51.7701 18.6643 51.554 18.844 51.3837 19.0617C51.2425 19.2126 51.1104 19.3713 50.988 19.537L50.8619 19.7027C50.8417 19.7298 50.8076 19.7774 50.7777 19.8127C50.6785 19.7324 50.5878 19.6428 50.5067 19.5452C50.4027 19.415 50.3121 19.2751 50.2364 19.1276C50.0558 18.7079 49.7261 18.3656 49.3077 18.1635C49.0435 18.0776 48.7607 18.0606 48.4877 18.1144C48.2146 18.1681 47.9608 18.2906 47.7514 18.4697C47.456 18.7693 47.2476 19.1399 47.1474 19.5438L47.0924 19.7115C47.0663 19.8017 47.0346 19.8904 46.9976 19.977C46.952 19.8668 46.9152 19.7533 46.8876 19.6375L46.8346 19.4671C46.744 19.0676 46.5524 18.6965 46.2773 18.3875C46.088 18.2127 45.8538 18.0908 45.5994 18.0348C45.345 17.9787 45.0798 17.9906 44.8318 18.0691C44.6019 18.1463 44.3953 18.2778 44.2304 18.4519C44.0654 18.6259 43.9472 18.8371 43.8864 19.0665C43.7782 19.4707 43.7313 19.8881 43.7471 20.3056V20.3735C43.7429 20.7809 43.7283 21.1882 43.7136 21.5956C43.7039 21.8672 43.6953 22.1388 43.6879 22.4104C43.6523 23.7961 43.6314 25.281 43.6182 27.0823C43.6182 27.3756 43.6182 27.6669 43.6182 27.9582C43.5778 28.0125 43.5332 28.0654 43.4963 28.1204C43.3923 27.7553 43.2695 27.3954 43.1285 27.0422C42.4534 25.3788 41.2252 24.0548 40.0751 22.6921C39.5484 22.0695 37.4167 18.2904 37.0168 20.1223C36.7709 21.2493 39.2983 23.5171 39.9608 24.3013C41.3076 25.7531 42.2211 27.5364 42.6025 29.458C42.7843 30.5443 42.978 33.4496 41.3841 33.7979C40.5871 33.9717 40.53 33.0395 39.8835 33.0402C39.035 33.0402 39.3157 33.8217 39.6313 34.2528C40.9417 36.0453 43.0637 34.2324 43.5736 32.791C43.7169 32.3702 43.8103 31.9349 43.8523 31.4935C44.4098 32.0717 45.165 32.4313 45.9757 32.5045C48.4913 32.7319 51.135 32.5045 53.6618 32.5045C55.0049 32.5045 56.355 32.6097 57.3282 31.486C57.7557 30.9819 57.9927 30.3502 57.9998 29.6962C58.0069 29.0423 57.7836 28.4058 57.3672 27.893V27.893ZM44.3664 22.4192C44.3734 22.151 44.3831 21.8821 44.3922 21.6139C44.4068 21.2018 44.4214 20.7897 44.4263 20.3776V20.3097C44.4112 19.9576 44.448 19.6052 44.5357 19.2634C44.5657 19.1371 44.6267 19.0198 44.7133 18.9214C44.7999 18.8231 44.9096 18.7466 45.0331 18.6985C45.1137 18.6743 45.1975 18.6619 45.2818 18.6618C45.4719 18.6577 45.6562 18.7262 45.7952 18.8526C45.9933 19.0982 46.1302 19.3852 46.1951 19.6911L46.2278 19.8072C46.3094 20.1121 46.4327 20.5724 46.85 20.6899C47.4526 20.8569 47.6636 20.163 47.7438 19.9023L47.7925 19.7529C47.8625 19.4606 48.0046 19.1894 48.2063 18.9626C48.3223 18.8656 48.4613 18.7984 48.6107 18.767C48.7601 18.7356 48.9151 18.741 49.0618 18.7827C49.3175 18.8791 49.4749 19.1541 49.6714 19.4976C49.7651 19.6748 49.8786 19.8412 50.0099 19.9939C50.1806 20.1868 50.4976 20.5466 50.8801 20.4916C51.0027 20.4568 51.1169 20.3979 51.2154 20.3187C51.314 20.2394 51.395 20.1414 51.4534 20.0306L51.5321 19.9288C51.6387 19.784 51.7536 19.6453 51.8763 19.5132C52.2246 19.1534 52.5457 18.9511 52.7763 18.9667C52.8934 18.9741 52.9686 19.0821 53.0891 19.4419C53.1254 19.6372 53.2056 19.8222 53.3241 19.9836C53.4425 20.145 53.5961 20.2789 53.7739 20.3755C54.1181 20.5113 54.4253 20.2173 54.5263 20.1209C54.6454 20.0032 54.7562 19.8777 54.8579 19.7454C54.9977 19.5264 55.1956 19.3482 55.4306 19.2294C55.4612 19.2169 55.4942 19.211 55.5274 19.212C55.5606 19.2131 55.5931 19.2211 55.6228 19.2355C55.8799 19.3659 56.0631 19.9491 56.1314 20.1691C56.4648 21.2896 56.6749 22.4415 56.7584 23.6053C56.8749 24.8221 56.8761 26.0466 56.7618 27.2636L56.7577 27.3036C56.2727 26.9577 55.6867 26.7725 55.0857 26.7754H47.1244C46.149 26.672 45.1642 26.8577 44.2988 27.3084C44.2988 27.2323 44.2988 27.1556 44.2988 27.0796C44.31 25.2817 44.3316 23.8009 44.3664 22.4192Z" fill="black"/>
<path d="M46.5618 27.946C46.8776 27.7647 47.2465 27.6533 47.632 27.623C48.1204 27.5878 48.125 26.9656 47.632 27.0015C47.1102 27.0324 46.6074 27.1729 46.1734 27.4091C45.7664 27.6334 46.1502 28.1711 46.5618 27.946Z" fill="white"/>
<path d="M52.704 27.9074C52.8177 27.8229 52.9545 27.7706 53.0984 27.7566C53.2424 27.7425 53.3876 27.7673 53.5172 27.8281C54.0002 28.0104 54.2059 27.2757 53.7307 27.0989C53.464 27.0014 53.1739 26.9753 52.8925 27.0236C52.6111 27.0718 52.3493 27.1925 52.136 27.3723C51.7361 27.6813 52.307 28.2145 52.704 27.9083V27.9074Z" fill="white"/>
<path d="M30.0105 84.3771C30.7127 73.599 31.963 62.8256 31.6147 52C28.2315 53.6003 26.9956 57.7515 27 61.4243C27.0063 66.3961 27.0817 71.3668 27.2263 76.3363C27.2984 78.7339 27.3877 81.1308 27.4941 83.5271C27.5469 84.691 27.3998 85.4061 28.427 85.9258C29.4358 86.3391 30.4828 86.6309 31.5494 86.7958C32.1 86.9183 36.4558 87.4318 34.497 86.1433C33.2171 85.3008 31.4236 84.8947 30.0105 84.3771Z" fill="#FFAF66"/>
<path d="M26 26.5C25.9908 26.6359 25.9341 26.7629 25.8413 26.8557C25.7486 26.9484 25.6266 27 25.5 27C25.3734 27 25.2514 26.9484 25.1587 26.8557C25.0659 26.7629 25.0092 26.6359 25 26.5C25.0092 26.3641 25.0659 26.2371 25.1587 26.1443C25.2514 26.0516 25.3734 26 25.5 26C25.6266 26 25.7486 26.0516 25.8413 26.1443C25.9341 26.2371 25.9908 26.3641 26 26.5Z" fill="black"/>
<path d="M31 25.5C30.9908 25.6359 30.9341 25.7629 30.8413 25.8557C30.7486 25.9484 30.6266 26 30.5 26C30.3734 26 30.2514 25.9484 30.1587 25.8557C30.0659 25.7629 30.0092 25.6359 30 25.5C30.0092 25.3641 30.0659 25.2371 30.1587 25.1443C30.2514 25.0516 30.3734 25 30.5 25C30.6266 25 30.7486 25.0516 30.8413 25.1443C30.9341 25.2371 30.9908 25.3641 31 25.5Z" fill="black"/>
<path d="M30.9737 27.3178C30.964 27.03 30.5915 26.856 30.4723 27.1583C30.3178 27.4379 30.103 27.6645 29.8496 27.8153C29.5962 27.966 29.3133 28.0355 29.0297 28.0166C28.4676 28.0666 27.9024 28.0198 27.3519 27.8776C27.2957 27.8637 27.2373 27.8717 27.1854 27.9004C27.177 27.9004 27.1698 27.9095 27.1608 27.9133C27.153 27.9167 27.1454 27.9208 27.1381 27.9255C27.1105 27.9375 27.0853 27.9561 27.0642 27.9802C27.0431 28.0043 27.0265 28.0332 27.0154 28.0653C27.0044 28.0973 26.9992 28.1317 27.0001 28.1662C27.001 28.2007 27.0081 28.2346 27.0208 28.2658L27.028 28.2863C27.0335 28.3131 27.0427 28.3388 27.0552 28.3622C27.5151 29.6656 28.4318 31.4096 29.8466 30.9136C31.1571 30.4556 31.0165 28.581 30.9737 27.3178Z" fill="#F36B73"/>
<path d="M47.1938 30.1709L47.0086 30.7025C46.909 31.0009 47.7058 31.129 47.8054 30.8289L47.9906 30.2972C48.0952 29.9988 47.2934 29.8713 47.1938 30.1709Z" fill="white"/>
<path d="M53 30.2075V30.7925C53.0063 30.8484 53.0617 30.9012 53.1548 30.9398C53.2479 30.9785 53.3715 31 53.5 31C53.6285 31 53.7521 30.9785 53.8452 30.9398C53.9383 30.9012 53.9937 30.8484 54 30.7925V30.2075C53.9937 30.1516 53.9383 30.0988 53.8452 30.0602C53.7521 30.0215 53.6285 30 53.5 30C53.3715 30 53.2479 30.0215 53.1548 30.0602C53.0617 30.0988 53.0063 30.1516 53 30.2075V30.2075Z" fill="white"/>
<path d="M23.5696 25.738C23.6502 25.4283 23.8077 25.163 24.0171 24.9847C24.2265 24.8064 24.4755 24.7255 24.7241 24.755C25.0926 24.7866 25.0913 24.0315 24.7241 24.0035C24.3498 23.976 23.9791 24.1121 23.67 24.3903C23.361 24.6685 23.131 25.0731 23.0162 25.5409C22.8989 26.0003 23.453 26.1974 23.5683 25.7407L23.5696 25.738Z" fill="black"/>
<path d="M33.5401 23.8687C33.6116 23.7035 33.7689 23.5644 33.9791 23.4804C34.1893 23.3965 34.4364 23.374 34.669 23.4178C34.7375 23.4278 34.8088 23.4187 34.8683 23.3923C34.9279 23.3659 34.9714 23.3243 34.99 23.2758C35.0086 23.2272 35.001 23.1754 34.9687 23.1308C34.9363 23.0861 34.8817 23.052 34.8157 23.0352C34.4421 22.9647 34.0452 23.0009 33.7078 23.1363C33.3705 23.2717 33.1188 23.4957 33.0055 23.7616C32.9916 23.811 33.0043 23.8623 33.0409 23.9052C33.0775 23.9481 33.1353 23.9794 33.2027 23.9928C33.2701 24.0062 33.342 24.0007 33.404 23.9774C33.466 23.9541 33.5135 23.9148 33.5367 23.8673L33.5401 23.8687Z" fill="black"/>
<path d="M29.6181 16.568L22.3222 18.4782C21.1718 18.7797 20.0351 19.051 19.4405 20.3506C19.4136 20.4085 19.3978 20.4656 19.3749 20.5235C19.2817 19.8169 19.178 19.1153 19.0736 18.4261C18.9594 17.6818 18.7848 13.7336 17.7873 14.0143C16.8311 14.2797 17.8667 17.7267 17.973 18.4174C18.4935 21.7957 19.1123 25.6195 18.0629 28.9457C17.9133 29.4202 16.1302 32.0861 17.5379 31.9979C18.4449 31.9407 19.1202 29.2994 19.2882 28.5899C19.659 26.8954 19.7835 25.1468 19.6571 23.4093C19.9932 23.8843 20.4374 24.2527 20.9446 24.4772C21.4518 24.7016 22.0039 24.7741 22.5447 24.6873C24.9021 24.3191 27.2739 23.449 29.5899 22.843C30.8205 22.5204 32.0838 22.3049 32.7224 20.9054C32.9498 20.3867 33.0403 19.8079 32.9835 19.2353C32.9267 18.6626 32.7249 18.1191 32.4012 17.6668C32.0775 17.2144 31.6449 16.8716 31.1527 16.6773C30.6606 16.483 30.1289 16.4451 29.6181 16.568V16.568Z" fill="#FF724C"/>
<path d="M18.5 88C18.3674 88 18.2402 88.0527 18.1464 88.1464C18.0527 88.2402 18 88.3674 18 88.5C18 88.6326 18.0527 88.7598 18.1464 88.8536C18.2402 88.9473 18.3674 89 18.5 89C18.6326 89 18.7598 88.9473 18.8536 88.8536C18.9473 88.7598 19 88.6326 19 88.5C19 88.3674 18.9473 88.2402 18.8536 88.1464C18.7598 88.0527 18.6326 88 18.5 88Z" fill="black"/>
<path d="M19.5 91C19.3674 91 19.2402 91.0527 19.1464 91.1464C19.0527 91.2402 19 91.3674 19 91.5C19 91.6326 19.0527 91.7598 19.1464 91.8536C19.2402 91.9473 19.3674 92 19.5 92C19.6326 92 19.7598 91.9473 19.8536 91.8536C19.9473 91.7598 20 91.6326 20 91.5C20 91.3674 19.9473 91.2402 19.8536 91.1464C19.7598 91.0527 19.6326 91 19.5 91V91Z" fill="black"/>
<path d="M43.5 93C43.3674 93 43.2402 93.0527 43.1464 93.1464C43.0527 93.2402 43 93.3674 43 93.5C43 93.6326 43.0527 93.7598 43.1464 93.8536C43.2402 93.9473 43.3674 94 43.5 94C43.6326 94 43.7598 93.9473 43.8536 93.8536C43.9473 93.7598 44 93.6326 44 93.5C44 93.3674 43.9473 93.2402 43.8536 93.1464C43.7598 93.0527 43.6326 93 43.5 93Z" fill="black"/>
<path d="M67.5 91C67.3674 91 67.2402 91.0527 67.1465 91.1464C67.0527 91.2402 67 91.3674 67 91.5C67 91.6326 67.0527 91.7598 67.1465 91.8535C67.2402 91.9473 67.3674 92 67.5 92C67.6326 92 67.7598 91.9473 67.8536 91.8535C67.9473 91.7598 68 91.6326 68 91.5C68 91.3674 67.9473 91.2402 67.8536 91.1464C67.7598 91.0527 67.6326 91 67.5 91Z" fill="black"/>
<path d="M75.5 87C75.3674 87 75.2402 87.0527 75.1464 87.1464C75.0527 87.2402 75 87.3674 75 87.5C75 87.6326 75.0527 87.7598 75.1464 87.8536C75.2402 87.9473 75.3674 88 75.5 88C75.6326 88 75.7598 87.9473 75.8536 87.8536C75.9473 87.7598 76 87.6326 76 87.5C76 87.3674 75.9473 87.2402 75.8536 87.1464C75.7598 87.0527 75.6326 87 75.5 87Z" fill="black"/>
<path d="M53 42.4323V42.5677C53.0063 42.6843 53.0617 42.7942 53.1548 42.8747C53.2479 42.9551 53.3715 43 53.5 43C53.6285 43 53.7521 42.9551 53.8452 42.8747C53.9383 42.7942 53.9937 42.6843 54 42.5677V42.4323C53.9937 42.3157 53.9383 42.2058 53.8452 42.1253C53.7521 42.0449 53.6285 42 53.5 42C53.3715 42 53.2479 42.0449 53.1548 42.1253C53.0617 42.2058 53.0063 42.3157 53 42.4323Z" fill="black"/>
</svg>
