<svg width="240" height="284" viewBox="0 0 240 284" fill="none" xmlns="http://www.w3.org/2000/svg">
<path d="M120.557 94.6389C125.804 96.7019 159.908 79.9829 162.286 50.2859C164.664 20.5889 139.099 -7.32308 107.199 1.73592C75.2987 10.7949 62.1437 25.6259 62.8777 43.2199C44.9337 42.6609 10.9347 66.0959 29.1587 93.5539C7.29869 98.5889 -11.4863 127.063 8.45169 147.806C28.3897 168.549 80.7517 127.623 79.8777 110.694C96.9467 117.444 118.499 101.599 120.557 94.6389Z" fill="#16324F"/>
<path d="M101.739 88.6889C100.76 89.4589 85.6837 90.5779 85.0187 85.2259C84.2497 79.9099 94.8828 81.2039 95.9678 81.8679" fill="#FFC3A9"/>
<path d="M101.739 88.6889C100.76 89.4589 85.6837 90.5779 85.0187 85.2259C84.2497 79.9099 94.8828 81.2039 95.9678 81.8679" stroke="#E89589" stroke-width="1.049" stroke-linecap="round" stroke-linejoin="round"/>
<path d="M126.958 69.8389C127.133 68.5799 132.94 59.5549 136.507 63.5389C140.215 67.4559 129.722 78.3699 128.497 78.6139" fill="#FFC3A9"/>
<path d="M126.958 69.8389C127.133 68.5799 132.94 59.5549 136.507 63.5389C140.215 67.4559 129.722 78.3699 128.497 78.6139" stroke="#E89589" stroke-width="1.049" stroke-linecap="round" stroke-linejoin="round"/>
<path d="M172.674 252.146C170.33 250.502 166.483 245.146 165.674 243.996C166.864 240.918 178.162 211.361 182.289 204.086C183.863 201.322 186.032 199.958 188.9 199.958C196.7 199.958 207.019 210.032 208.942 212.026C205.973 215.558 182.258 243.366 172.674 252.146Z" fill="#FFC3A9"/>
<path d="M188.905 200.483C196.145 200.483 205.694 209.507 208.248 212.061C204.26 216.748 182.084 242.667 172.64 251.481C170.265 249.187 168.131 246.655 166.274 243.926C167.883 239.726 178.761 211.426 182.749 204.326C183.294 203.159 184.165 202.174 185.257 201.491C186.35 200.809 187.617 200.457 188.905 200.479V200.483ZM188.905 199.43C186.105 199.43 183.623 200.654 181.839 203.837C177.467 211.602 165.12 244.062 165.12 244.062C165.12 244.062 170.087 251.232 172.78 252.806C182.854 243.677 209.717 211.987 209.717 211.987C209.717 211.987 197.859 199.43 188.905 199.43V199.43Z" fill="#E89589"/>
<path d="M112.092 248.123C103.172 248.123 95.6174 248.018 93.8334 248.018C93.2384 245.71 90.3704 233.292 94.6024 227.731C95.3133 226.827 96.231 226.108 97.2782 225.633C98.3253 225.158 99.4713 224.942 100.619 225.003C100.968 225.003 101.319 225.003 101.668 225.038C111.252 225.838 140.389 235.426 143.642 236.51C143.887 237.98 144.936 244.451 144.551 247.284C137.136 247.983 122.865 248.123 112.092 248.123Z" fill="#FFC3A9"/>
<path d="M100.62 224.513V225.562C100.935 225.562 101.284 225.562 101.634 225.597C110.903 226.367 138.781 235.461 143.188 236.93C143.79 240.196 144.095 243.509 144.098 246.83C136.577 247.46 122.656 247.6 112.098 247.6C103.738 247.6 96.5975 247.53 94.2585 247.495C93.5235 244.487 91.1455 233.189 95.0275 228.047C95.686 227.204 96.5401 226.533 97.5159 226.095C98.4917 225.656 99.5597 225.461 100.628 225.528V224.514L100.62 224.513ZM100.628 224.514C86.7405 224.514 93.4565 248.544 93.4565 248.544C93.4565 248.544 101.817 248.684 112.101 248.684C123.748 248.684 137.845 248.509 145.015 247.809C145.645 244.731 144.106 236.127 144.106 236.127C144.106 236.127 111.996 225.427 101.712 224.549C101.327 224.514 100.977 224.514 100.628 224.514V224.514Z" fill="#E89589"/>
<path d="M109.013 248.718C105.656 262.15 100.584 280.058 92.9934 278.484C85.4024 276.91 24.7514 229.725 37.9384 200.798C46.6474 185.967 112.511 205.31 112.511 205.31C112.511 205.31 163.65 181.944 170.54 173.62C177.396 165.33 209.191 125.734 221.993 128.008C234.795 130.282 243.12 133.608 238.818 179.986C234.935 222.134 232.977 230.075 229.549 234.412C226.121 238.749 197.509 226.297 197.509 226.297L208.562 213.005C208.562 213.005 188.729 205.345 181.768 204.89C171.345 229.445 166.098 234.69 147.63 238.015C136.751 232.733 102.647 223.778 100.164 224.653C97.4574 232.534 95.2723 240.585 93.6234 248.753C93.6234 248.753 101.668 248.578 109.013 248.718Z" fill="#4E545C"/>
<path d="M93.5887 248.718C92.2597 258.092 88.5887 276.071 96.1767 282.892C103.765 289.713 112.757 244.73 112.757 244.73L93.5887 248.718Z" fill="#FFD400"/>
<path d="M206.149 212.131C213.565 216.503 227.976 220.98 230.319 233.397C232.628 245.815 221.959 258.797 220.91 258.722C219.861 258.647 191.144 227.276 191.144 227.276L206.149 212.131Z" fill="#FFD400"/>
<path d="M181.733 204.889C183.167 199.014 207.512 150.189 207.512 150.189" stroke="#4E545C" stroke-width="1.399" stroke-linecap="round" stroke-linejoin="round"/>
<path d="M100.13 224.618C94.0436 221.05 69.5586 210.277 69.5586 210.277" stroke="#4E545C" stroke-width="1.399" stroke-linecap="round" stroke-linejoin="round"/>
<path d="M76.7295 207.968C77.8835 211.536 79.1425 214.579 79.1425 214.579" stroke="#FF5C76" stroke-width="1.399" stroke-linecap="round" stroke-linejoin="round"/>
<path d="M167.217 180.93C164.608 186.502 162.467 192.282 160.817 198.209" stroke="#4E545C" stroke-width="1.399" stroke-linecap="round" stroke-linejoin="round"/>
<path d="M112.651 205.489C116.079 206.433 132.659 210.351 132.659 210.351" stroke="#4E545C" stroke-width="1.399" stroke-linecap="round" stroke-linejoin="round"/>
<path d="M144.622 193.872C145.672 199.294 147.596 207.129 149.834 205.205" stroke="#4E545C" stroke-width="1.399" stroke-linecap="round" stroke-linejoin="round"/>
<path d="M74.8756 214.509C51.6846 204.889 40.5986 200.448 56.7916 167.883C72.9846 135.318 95.7226 110.554 145.007 102.299C194.291 94.0439 234.691 87.6429 236.126 118.249C236.72 135.458 228.151 145.567 228.151 145.567C228.151 145.567 219.686 151.303 204.295 140.81C214.964 133.11 219.895 130.456 219.895 130.456C219.895 130.456 208.737 119.193 196.284 121.856C183.831 124.519 161.236 129.481 161.236 129.481C161.236 129.481 171.065 165.893 172.009 172.294C172.989 178.66 141.124 211.75 109.363 204.719C106.95 188.419 100.234 150.293 100.234 150.293C100.234 150.293 86.4526 170.227 85.5786 172.605C88.6183 171.817 91.6083 170.849 94.5326 169.705C94.5326 169.705 80.3326 190.657 80.9266 197.373C81.5906 203.389 91.1756 198.597 91.1756 198.597C91.1756 198.597 83.2346 210.172 74.8756 214.509Z" fill="#FFD400"/>
<path d="M157.599 151.789C161.199 148.921 192.053 124.331 197.299 122.267C198.382 122.057 199.483 121.952 200.587 121.953C209.646 121.953 217.026 128.703 218.88 130.522L164.629 164.731L157.599 151.789Z" fill="#FFC3A9"/>
<path d="M200.588 122.516C208.808 122.516 215.663 128.216 218.042 130.491L164.805 164.035L158.264 151.968C170.331 142.314 193.032 124.615 197.44 122.831C198.476 122.622 199.53 122.517 200.588 122.516V122.516ZM200.588 121.467C199.438 121.469 198.29 121.575 197.16 121.782C191.598 123.915 156.935 151.688 156.935 151.688L164.42 165.505L219.686 130.666C219.686 130.666 211.396 121.466 200.586 121.466L200.588 121.467Z" fill="#E89589"/>
<path d="M84.4246 199.923C83.9022 199.992 83.3709 199.911 82.8935 199.687C82.4161 199.464 82.0125 199.109 81.7306 198.664C80.4716 196.285 81.8006 189.43 95.0226 170.402C101.914 168.828 128.742 162.531 132.765 161.587L135.565 173.794L91.1056 197.999C91.1056 197.999 87.2926 199.923 84.4246 199.923Z" fill="#FFC3A9"/>
<path d="M132.379 162.182L134.967 173.515L90.8605 197.515C90.6505 197.615 87.0825 199.404 84.3895 199.404C82.6755 199.404 82.2895 198.669 82.1505 198.424C81.7655 197.655 81.4165 195.624 83.5505 190.589C85.6145 185.727 89.5675 179.081 95.3035 170.826C102.264 169.252 127.029 163.446 132.381 162.187L132.379 162.182ZM133.181 160.927C133.181 160.927 101.841 168.273 94.7045 169.917C76.9355 195.486 79.6295 200.453 84.4215 200.453C87.4645 200.453 91.3815 198.424 91.3815 198.424L136.189 174.044L133.181 160.927V160.927Z" fill="#E89589"/>
<path d="M125.07 91.8399L131.855 113.562C132.15 114.486 132.154 115.478 131.866 116.404C131.578 117.33 131.013 118.145 130.246 118.739C129.383 119.435 128.343 119.876 127.242 120.012C126.142 120.148 125.026 119.973 124.02 119.508C123.315 119.231 122.686 118.792 122.182 118.227C121.679 117.662 121.315 116.986 121.12 116.255C120.141 112.547 115.838 98.3809 115.558 98.2759" fill="#FFC3A9"/>
<path d="M125.07 91.8399L131.855 113.562C132.15 114.486 132.154 115.478 131.866 116.404C131.578 117.33 131.013 118.145 130.246 118.739C129.383 119.435 128.343 119.876 127.242 120.012C126.142 120.148 125.026 119.973 124.02 119.508C123.315 119.231 122.686 118.792 122.182 118.227C121.679 117.662 121.315 116.986 121.12 116.255C120.141 112.547 115.838 98.3809 115.558 98.2759" stroke="#E89589" stroke-width="1.049" stroke-linecap="round" stroke-linejoin="round"/>
<path d="M88.8984 69.5939C95.1244 83.2709 102.998 106.041 121.078 98.9409C141.645 90.9659 124.121 55.4979 124.121 55.4979" fill="#FFC3A9"/>
<path d="M88.8984 69.5939C95.1244 83.2709 102.998 106.041 121.078 98.9409C141.645 90.9659 124.121 55.4979 124.121 55.4979" stroke="#E89589" stroke-width="1.049" stroke-miterlimit="10"/>
<path d="M124.299 53.0889C125.305 51.257 126.002 49.2717 126.363 47.2129C126.363 47.2129 93.9376 47.0029 77.0426 52.6349C60.1476 58.2669 64.1716 79.2129 84.7746 75.1209C99.3946 72.2209 112.932 66.5159 120.452 58.4009C121.607 62.4239 124.125 65.7109 128.008 65.9559C130.808 66.1309 133.779 53.0139 133.779 53.0139L124.299 53.0889Z" fill="#16324F"/>
<path d="M93.9033 49.0969C84.2143 50.1809 64.0663 50.9159 66.4803 64.3469C69.3483 80.3669 90.7553 73.7219 90.7553 73.7219" stroke="#56697D" stroke-width="1.049" stroke-linecap="round" stroke-linejoin="round"/>
<path d="M115.765 85.8939C115.765 85.8939 114.265 87.8179 113.072 86.9779C112.652 86.5239 113.492 83.7599 112.198 79.2129" stroke="#AE504A" stroke-width="1.049" stroke-linecap="round" stroke-linejoin="round"/>
<path d="M118.894 76.4406C119.693 76.1505 120.046 75.1057 119.684 74.1069C119.321 73.1081 118.379 72.5336 117.58 72.8237C116.781 73.1138 116.428 74.1587 116.79 75.1575C117.153 76.1563 118.095 76.7307 118.894 76.4406Z" fill="black"/>
<path d="M116.08 68.1599C118.144 67.2859 121.187 68.4749 121.187 68.4749" stroke="#AE504A" stroke-width="1.399" stroke-linecap="round" stroke-linejoin="round"/>
<path d="M105.529 81.026C106.328 80.7359 106.682 79.691 106.319 78.6922C105.957 77.6934 105.015 77.1189 104.216 77.409C103.417 77.6991 103.064 78.744 103.426 79.7428C103.789 80.7416 104.731 81.3161 105.529 81.026Z" fill="black"/>
<path d="M99.0806 75.8889C99.7806 73.8249 102.963 72.2509 102.963 72.2509" stroke="#AE504A" stroke-width="1.399" stroke-linecap="round" stroke-linejoin="round"/>
<path d="M121.607 89.6719C121.642 90.4409 120.207 92.6799 118.807 92.1549" stroke="#AE504A" stroke-width="1.049" stroke-linecap="round" stroke-linejoin="round"/>
<path d="M104.588 88.2171C106.407 87.9706 107.776 86.9948 107.646 86.0376C107.517 85.0804 105.937 84.5043 104.119 84.7508C102.3 84.9972 100.931 85.973 101.061 86.9302C101.19 87.8874 102.77 88.4635 104.588 88.2171Z" fill="#FF859B"/>
<path d="M122.73 81.5164C124.193 80.4081 124.906 78.8855 124.322 78.1156C123.739 77.3457 122.08 77.6199 120.617 78.7282C119.155 79.8364 118.442 81.359 119.025 82.129C119.608 82.8989 121.267 82.6246 122.73 81.5164Z" fill="#FF859B"/>
<path d="M135.107 248.368C136.961 245.325 142.068 235.881 141.089 235.461C146.44 235.461 155.01 237.455 155.535 240.288C156.06 243.121 145.426 275.721 139.235 274.252C133.009 272.748 141.333 261.415 135.107 248.368Z" fill="#16324F"/>
<path d="M161.447 174.634L146.861 181.07C145.951 181.469 144.921 181.49 143.996 181.129C143.071 180.768 142.328 180.055 141.929 179.146L127.029 145.252C126.63 144.343 126.609 143.312 126.969 142.388C127.33 141.463 128.044 140.719 128.953 140.32L143.539 133.884C144.448 133.485 145.478 133.464 146.403 133.825C147.328 134.185 148.072 134.899 148.471 135.808L163.371 169.702C163.769 170.611 163.791 171.641 163.43 172.566C163.069 173.491 162.356 174.235 161.447 174.634Z" fill="#EBF2FA"/>
<path d="M137.241 148.365L135.177 149.275C134.597 149.527 133.941 149.539 133.351 149.31C132.762 149.081 132.287 148.628 132.029 148.05L131.12 145.987C130.867 145.407 130.853 144.75 131.083 144.16C131.312 143.57 131.766 143.095 132.344 142.839L134.408 141.929C134.989 141.677 135.645 141.664 136.234 141.893C136.824 142.123 137.299 142.575 137.556 143.153L138.465 145.217C138.592 145.504 138.662 145.813 138.669 146.127C138.676 146.441 138.621 146.753 138.507 147.045C138.394 147.338 138.223 147.605 138.006 147.831C137.789 148.058 137.529 148.239 137.241 148.365V148.365Z" fill="#16324F"/>
<path d="M124.615 158.264C122.341 160.678 125.244 161.972 128.043 162.217C124.51 165.05 127.693 166.974 131.331 166.589C127.798 169.422 132.485 170.506 134.304 170.367C132.415 172.011 133.954 173.689 136.962 173.515C139.935 173.34 149.1 165.715 148.225 163.826C147.77 162.846 140.285 166.169 140.285 166.169C140.285 166.169 147.141 162.426 146.266 160.538C145.357 158.649 136.682 162.601 136.682 162.601C136.682 162.601 145.567 158.229 144.168 156.13C142.804 154.102 132.768 158.404 132.768 158.404C132.768 158.404 136.93 156.795 138.434 156.025C139.934 155.186 141.442 154.416 139.693 153.157C137.944 151.898 132.453 153.857 129.585 155.046C127.741 155.797 126.055 156.889 124.615 158.264Z" fill="#FFC3A9" stroke="#E89589" stroke-width="1.049" stroke-linecap="round" stroke-linejoin="round"/>
<path d="M152.458 149.974C150.149 152.038 145.952 156.095 146.336 158.194C146.721 160.328 148.05 159.313 149.449 158.334C150.814 157.32 154.067 154.277 154.067 154.277C154.067 154.277 145.777 161.377 147.001 163.511C148.26 165.679 156.095 159.663 156.095 159.663C156.095 159.663 148.715 165.714 150.009 167.363C151.303 169.012 157.709 164.495 157.709 164.495C157.709 164.495 151.409 169.777 152.109 170.616C153.403 172.26 164.316 167.398 165.75 164.775C167.219 162.152 166.38 160.018 164.071 160.997C165.016 159.423 166.1 154.736 162.008 156.697C163.931 153.584 163.617 149.876 159.524 151.835C160.539 149.212 160.643 146.029 157.46 147.008C155.62 147.673 153.923 148.679 152.458 149.974V149.974Z" fill="#FFC3A9" stroke="#E89589" stroke-width="1.049" stroke-linecap="round" stroke-linejoin="round"/>
<path d="M84.8786 185.512C80.4716 193.872 71.1326 207.618 74.9786 218.042C78.8246 228.466 95.1606 202.337 95.1606 200.868C95.1606 199.399 84.8786 185.512 84.8786 185.512Z" fill="#F9C126"/>
<path d="M213.738 125.769C219.72 130.316 232.907 140.915 228.289 148.785C225.526 153.507 218.321 151.268 218.321 151.268L189.464 142.314L213.738 125.769Z" fill="#F9C126"/>
<path d="M115.799 131.751C115.934 131.609 116.023 131.429 116.055 131.236C116.086 131.042 116.058 130.843 115.974 130.666C115.907 130.479 115.784 130.318 115.621 130.205C115.457 130.092 115.263 130.033 115.065 130.037V130.037L111.707 129.827C111.566 129.815 111.429 129.771 111.308 129.698C111.187 129.625 111.084 129.526 111.007 129.407L109.258 126.507C109.156 126.342 109.01 126.209 108.837 126.122C108.663 126.036 108.469 126 108.276 126.018C108.083 126.036 107.899 126.108 107.745 126.225C107.591 126.343 107.473 126.501 107.404 126.682L106.18 129.83C106.132 129.966 106.048 130.086 105.937 130.178C105.827 130.271 105.693 130.331 105.551 130.354L102.263 131.124C102.073 131.171 101.899 131.266 101.758 131.401C101.617 131.536 101.513 131.706 101.458 131.893C101.406 132.083 101.412 132.284 101.474 132.471C101.536 132.658 101.652 132.822 101.808 132.943L104.396 135.076C104.508 135.168 104.595 135.287 104.65 135.421C104.705 135.556 104.726 135.701 104.711 135.846L104.431 139.204C104.411 139.397 104.447 139.591 104.534 139.764C104.621 139.938 104.755 140.083 104.921 140.183C105.064 140.282 105.236 140.331 105.411 140.323C105.634 140.336 105.855 140.274 106.04 140.148L108.874 138.329C109 138.258 109.141 138.214 109.286 138.202C109.43 138.19 109.576 138.21 109.713 138.259L112.826 139.589C113.002 139.676 113.201 139.705 113.396 139.674C113.59 139.643 113.769 139.552 113.91 139.414C114.056 139.285 114.165 139.121 114.226 138.936C114.288 138.752 114.299 138.554 114.26 138.364L113.421 135.111C113.387 134.973 113.386 134.829 113.416 134.691C113.446 134.552 113.508 134.422 113.596 134.311L115.799 131.751Z" fill="#16324F"/>
<path d="M81.9755 154.521C82.0587 154.427 82.1125 154.31 82.1303 154.186C82.1481 154.062 82.129 153.935 82.0755 153.821C82.0273 153.708 81.9503 153.61 81.8522 153.536C81.754 153.462 81.6383 153.416 81.5165 153.401V153.401L79.3825 153.261C79.289 153.257 79.198 153.229 79.1184 153.18C79.0387 153.131 78.973 153.063 78.9275 152.981L77.8435 151.162C77.7778 151.056 77.6841 150.971 77.5729 150.916C77.4616 150.86 77.3372 150.837 77.2135 150.848C77.0917 150.863 76.9761 150.909 76.878 150.983C76.7799 151.056 76.7028 151.154 76.6545 151.267L75.8845 153.261C75.8542 153.347 75.8031 153.423 75.736 153.484C75.6688 153.545 75.5875 153.589 75.4995 153.611L73.3995 154.101C73.2794 154.127 73.1693 154.186 73.0824 154.273C72.9955 154.36 72.9354 154.47 72.9095 154.59C72.8816 154.709 72.8864 154.834 72.9234 154.951C72.9603 155.068 73.028 155.173 73.1195 155.255L74.7635 156.619C74.8319 156.68 74.8861 156.756 74.9224 156.841C74.9586 156.925 74.9761 157.017 74.9735 157.109L74.7985 159.242C74.7874 159.366 74.811 159.49 74.8666 159.602C74.9223 159.713 75.0077 159.806 75.1135 159.872C75.2057 159.936 75.3151 159.971 75.4275 159.972C75.5627 159.976 75.6964 159.941 75.8125 159.872L77.6315 158.718C77.7092 158.669 77.7979 158.64 77.8895 158.634C77.9812 158.628 78.0729 158.645 78.1565 158.683L80.1145 159.522C80.2282 159.575 80.355 159.594 80.4794 159.576C80.6037 159.559 80.7202 159.505 80.8145 159.422C80.9125 159.345 80.985 159.241 81.0225 159.123C81.06 159.004 81.0607 158.877 81.0245 158.758L80.4995 156.694C80.4811 156.604 80.4809 156.511 80.499 156.421C80.517 156.331 80.5529 156.245 80.6045 156.169L81.9755 154.521Z" fill="#16324F"/>
<path d="M131.156 194.816C131.239 194.722 131.293 194.605 131.31 194.481C131.328 194.356 131.309 194.23 131.256 194.116C131.207 194.003 131.13 193.905 131.032 193.831C130.934 193.757 130.818 193.711 130.696 193.696V193.696L128.562 193.556C128.468 193.552 128.378 193.524 128.298 193.475C128.219 193.426 128.153 193.358 128.108 193.276L127.023 191.457C126.957 191.351 126.864 191.266 126.753 191.211C126.642 191.155 126.517 191.132 126.394 191.143C126.272 191.157 126.156 191.204 126.058 191.277C125.959 191.351 125.882 191.449 125.834 191.562L125.065 193.556C125.034 193.641 124.983 193.718 124.916 193.779C124.849 193.84 124.768 193.884 124.68 193.906L122.58 194.396C122.46 194.422 122.349 194.481 122.263 194.568C122.176 194.655 122.116 194.765 122.09 194.885C122.062 195.004 122.067 195.129 122.104 195.246C122.14 195.363 122.208 195.468 122.3 195.55L123.944 196.914C124.012 196.975 124.066 197.051 124.103 197.136C124.139 197.22 124.156 197.312 124.154 197.404L123.979 199.537C123.968 199.661 123.991 199.785 124.047 199.897C124.102 200.008 124.188 200.101 124.294 200.167C124.386 200.231 124.496 200.266 124.609 200.267C124.744 200.271 124.878 200.236 124.994 200.167L126.812 199.013C126.889 198.964 126.978 198.935 127.07 198.929C127.161 198.923 127.253 198.94 127.337 198.978L129.296 199.817C129.409 199.87 129.536 199.89 129.661 199.872C129.785 199.854 129.901 199.8 129.996 199.717C130.094 199.64 130.166 199.536 130.204 199.417C130.241 199.299 130.242 199.172 130.206 199.053L129.682 196.989C129.663 196.899 129.663 196.806 129.681 196.716C129.699 196.626 129.735 196.54 129.787 196.464L131.156 194.816Z" fill="#16324F"/>
<path d="M167.988 121.572C168.071 121.478 168.124 121.361 168.142 121.237C168.16 121.112 168.141 120.986 168.088 120.872C168.04 120.759 167.963 120.66 167.864 120.587C167.766 120.513 167.65 120.467 167.528 120.453V120.453L165.395 120.313C165.301 120.309 165.21 120.281 165.131 120.232C165.051 120.183 164.985 120.115 164.94 120.033L163.855 118.214C163.789 118.108 163.696 118.023 163.585 117.967C163.474 117.911 163.349 117.888 163.226 117.899C163.104 117.914 162.988 117.96 162.889 118.034C162.791 118.108 162.714 118.206 162.666 118.319L161.897 120.313C161.866 120.398 161.815 120.475 161.748 120.536C161.681 120.597 161.6 120.64 161.512 120.662L159.412 121.152C159.292 121.178 159.182 121.238 159.095 121.325C159.008 121.412 158.948 121.522 158.923 121.642C158.895 121.761 158.9 121.886 158.936 122.002C158.973 122.119 159.041 122.224 159.132 122.306L160.776 123.671C160.844 123.732 160.898 123.808 160.935 123.892C160.971 123.977 160.988 124.068 160.986 124.16L160.811 126.294C160.8 126.418 160.823 126.542 160.879 126.654C160.934 126.765 161.02 126.858 161.126 126.924C161.218 126.988 161.328 127.022 161.441 127.024C161.576 127.028 161.709 126.993 161.826 126.924L163.645 125.769C163.722 125.72 163.811 125.691 163.902 125.685C163.994 125.679 164.085 125.696 164.169 125.734L166.128 126.574C166.241 126.627 166.368 126.646 166.493 126.628C166.617 126.611 166.733 126.557 166.828 126.474C166.925 126.397 166.998 126.292 167.035 126.174C167.072 126.055 167.073 125.928 167.037 125.809L166.513 123.745C166.494 123.655 166.493 123.563 166.51 123.473C166.527 123.383 166.562 123.297 166.613 123.221L167.988 121.572Z" fill="#16324F"/>
<path d="M69.8038 195.166C69.9392 195.024 70.0284 194.845 70.0596 194.651C70.0909 194.458 70.0627 194.259 69.9788 194.082C69.9123 193.895 69.7887 193.733 69.6254 193.62C69.4621 193.507 69.2673 193.448 69.0688 193.452V193.452L65.7108 193.242C65.5699 193.23 65.4337 193.186 65.3124 193.113C65.1911 193.041 65.0879 192.941 65.0108 192.823L63.2618 189.923C63.1601 189.758 63.0144 189.625 62.8409 189.538C62.6675 189.452 62.4733 189.416 62.2803 189.434C62.0874 189.452 61.9034 189.524 61.7492 189.641C61.595 189.759 61.4767 189.917 61.4078 190.098L60.1838 193.246C60.1359 193.382 60.0521 193.503 59.9411 193.595C59.8302 193.688 59.6964 193.748 59.5538 193.771L56.2658 194.541C56.0769 194.588 55.9037 194.684 55.7633 194.819C55.6229 194.954 55.5204 195.123 55.4658 195.31C55.4145 195.5 55.4203 195.701 55.4826 195.887C55.5448 196.074 55.6607 196.238 55.8158 196.359L58.3988 198.489C58.511 198.581 58.5985 198.7 58.6535 198.834C58.7085 198.969 58.7292 199.115 58.7138 199.259L58.4338 202.617C58.4145 202.81 58.4504 203.004 58.5371 203.177C58.6238 203.351 58.7579 203.496 58.9238 203.596C59.0672 203.695 59.2389 203.744 59.4128 203.736C59.6363 203.749 59.8578 203.687 60.0428 203.561L62.8758 201.742C63.0022 201.67 63.1429 201.626 63.288 201.614C63.4331 201.602 63.5791 201.622 63.7158 201.672L66.8288 203.001C67.0053 203.088 67.2044 203.117 67.3986 203.086C67.5928 203.055 67.7724 202.964 67.9128 202.826C68.0585 202.698 68.1677 202.533 68.2292 202.349C68.2906 202.164 68.3022 201.967 68.2628 201.777L67.4228 198.524C67.3892 198.386 67.3876 198.242 67.4179 198.104C67.4482 197.965 67.5097 197.835 67.5978 197.724L69.8038 195.166Z" fill="#16324F"/>
<path d="M227.731 114.646C227.866 114.504 227.955 114.325 227.986 114.131C228.018 113.938 227.989 113.739 227.906 113.562C227.839 113.375 227.715 113.213 227.552 113.1C227.389 112.987 227.194 112.928 226.996 112.932V112.932L223.638 112.722C223.497 112.71 223.36 112.666 223.239 112.593C223.118 112.521 223.015 112.421 222.938 112.303L221.189 109.403C221.087 109.238 220.941 109.105 220.768 109.018C220.594 108.932 220.4 108.896 220.207 108.914C220.014 108.932 219.83 109.004 219.676 109.121C219.522 109.239 219.403 109.397 219.335 109.578L218.111 112.726C218.063 112.862 217.979 112.983 217.868 113.075C217.757 113.168 217.623 113.228 217.481 113.251L214.193 114.021C214.004 114.068 213.83 114.164 213.69 114.299C213.55 114.434 213.447 114.603 213.393 114.79C213.341 114.98 213.347 115.181 213.409 115.367C213.472 115.554 213.587 115.718 213.743 115.839L216.331 117.973C216.443 118.065 216.53 118.184 216.585 118.318C216.64 118.453 216.661 118.598 216.646 118.743L216.366 122.101C216.346 122.294 216.382 122.488 216.469 122.661C216.556 122.835 216.69 122.98 216.856 123.08C216.999 123.179 217.171 123.228 217.345 123.22C217.568 123.233 217.79 123.171 217.975 123.045L220.808 121.226C220.934 121.154 221.075 121.11 221.22 121.098C221.365 121.086 221.511 121.106 221.648 121.156L224.761 122.485C224.937 122.572 225.136 122.601 225.33 122.57C225.525 122.539 225.704 122.448 225.845 122.31C225.99 122.182 226.099 122.017 226.161 121.833C226.222 121.648 226.234 121.451 226.195 121.261L225.355 118.008C225.321 117.87 225.319 117.726 225.35 117.588C225.38 117.449 225.442 117.319 225.53 117.208L227.731 114.646Z" fill="#16324F"/>
<path d="M193.836 102.297C193.972 102.155 194.061 101.976 194.092 101.782C194.124 101.589 194.095 101.39 194.011 101.213C193.945 101.026 193.821 100.864 193.658 100.751C193.495 100.638 193.3 100.579 193.101 100.583V100.583L189.743 100.373C189.602 100.361 189.466 100.317 189.345 100.244C189.223 100.171 189.12 100.072 189.043 99.9529L187.294 97.0529C187.193 96.8879 187.047 96.7546 186.874 96.6681C186.7 96.5817 186.506 96.5455 186.313 96.5637C186.12 96.5819 185.936 96.6538 185.782 96.7712C185.628 96.8886 185.509 97.0468 185.44 97.2279L184.216 100.376C184.169 100.512 184.085 100.633 183.974 100.725C183.863 100.818 183.729 100.878 183.586 100.901L180.298 101.67C180.11 101.718 179.937 101.814 179.796 101.949C179.656 102.084 179.553 102.253 179.498 102.44C179.447 102.63 179.453 102.831 179.515 103.017C179.578 103.204 179.693 103.368 179.848 103.489L182.436 105.623C182.549 105.715 182.636 105.833 182.691 105.968C182.746 106.102 182.767 106.248 182.751 106.392L182.471 109.75C182.452 109.943 182.488 110.137 182.575 110.311C182.661 110.484 182.796 110.63 182.961 110.73C183.105 110.829 183.277 110.878 183.45 110.87C183.674 110.883 183.896 110.821 184.08 110.695L186.913 108.876C187.04 108.804 187.181 108.76 187.326 108.748C187.471 108.736 187.617 108.756 187.753 108.806L190.866 110.135C191.043 110.222 191.242 110.251 191.436 110.22C191.63 110.189 191.81 110.098 191.95 109.96C192.096 109.832 192.205 109.667 192.267 109.483C192.328 109.298 192.34 109.101 192.3 108.911L191.46 105.658C191.427 105.52 191.426 105.376 191.456 105.238C191.486 105.099 191.548 104.969 191.635 104.858L193.836 102.297Z" fill="#16324F"/>
<path d="M168.967 180.125C169.102 179.983 169.191 179.804 169.223 179.61C169.254 179.417 169.226 179.218 169.142 179.041C169.075 178.854 168.952 178.693 168.788 178.58C168.625 178.467 168.431 178.408 168.233 178.412V178.412L164.875 178.202C164.734 178.19 164.597 178.146 164.476 178.073C164.355 178 164.251 177.901 164.175 177.782L162.426 174.882C162.324 174.717 162.178 174.583 162.005 174.497C161.832 174.41 161.637 174.374 161.445 174.392C161.252 174.411 161.068 174.483 160.914 174.6C160.759 174.717 160.641 174.876 160.573 175.057L159.348 178.205C159.3 178.341 159.216 178.461 159.105 178.553C158.994 178.646 158.861 178.706 158.719 178.729L155.431 179.499C155.242 179.547 155.069 179.643 154.929 179.777C154.788 179.912 154.686 180.081 154.631 180.268C154.579 180.458 154.585 180.659 154.647 180.846C154.709 181.033 154.825 181.197 154.981 181.318L157.569 183.451C157.681 183.543 157.768 183.662 157.823 183.796C157.878 183.931 157.899 184.077 157.884 184.221L157.604 187.579C157.584 187.772 157.62 187.966 157.707 188.139C157.793 188.313 157.928 188.458 158.094 188.558C158.237 188.657 158.409 188.706 158.584 188.698C158.807 188.711 159.028 188.649 159.213 188.523L162.047 186.704C162.173 186.633 162.314 186.589 162.458 186.577C162.603 186.565 162.749 186.585 162.886 186.634L165.999 187.964C166.175 188.051 166.375 188.08 166.569 188.049C166.763 188.018 166.943 187.927 167.084 187.789C167.229 187.66 167.338 187.495 167.4 187.311C167.461 187.127 167.472 186.929 167.433 186.739L166.594 183.486C166.56 183.348 166.559 183.204 166.589 183.066C166.619 182.927 166.681 182.797 166.769 182.686L168.967 180.125Z" fill="#16324F"/>
<path d="M94.3235 170.576C91.0705 172.115 76.0645 175.998 72.8115 177.887" stroke="#F9C126" stroke-width="1.399" stroke-linecap="round" stroke-linejoin="round"/>
<path d="M196.424 122.411C199.817 119.123 208.524 109.19 208.524 109.19" stroke="#F9C126" stroke-width="1.399" stroke-linecap="round" stroke-linejoin="round"/>
<path d="M175.088 250.31C172.188 248.282 165.609 243.77 166.343 243C161.443 245.134 154.381 250.38 155.043 253.214C155.708 256.014 175.4 282.945 180.507 279.098C185.614 275.251 174.598 264.757 175.088 250.31Z" fill="#16324F"/>
</svg>

