<svg width="36" height="30" viewBox="0 0 36 30" fill="none" xmlns="http://www.w3.org/2000/svg">
<path d="M35.1373 24.9943C33.7933 24.8068 32.5056 24.1738 31.5179 23.2049C30.6365 22.3375 29.38 22.3218 28.5049 23.2049C26.1357 25.5804 21.8037 25.5804 19.3971 23.0876C18.5532 22.2124 17.3342 22.3765 16.4778 23.2283C14.1024 25.5804 9.79543 25.5726 7.40127 23.0955C6.55737 22.2202 5.31966 22.4 4.45701 23.2517C3.4881 24.2051 2.20663 24.8224 0.850146 25.0022C0.356311 25.0647 0 25.6117 0 26.229V28.7452C0 29.4563 0.475081 30.058 1.04393 29.9955C2.84424 29.8002 4.55078 29.1047 6.00728 27.9716C9.53913 30.6754 14.5712 30.6363 18.0093 27.9716C21.5412 30.6754 26.5733 30.6363 30.0114 27.9716C31.4679 29.0812 33.1932 29.7924 34.956 29.9877C35.5248 30.0502 35.9999 29.4485 35.9999 28.7374V26.2681C36.0062 25.6429 35.6436 25.0647 35.1373 24.9943ZM35.1373 13.7417C33.7933 13.5541 32.5056 12.9212 31.5179 11.9522C30.6365 11.0848 29.38 11.0692 28.5049 11.9522C26.1357 14.3277 21.8037 14.3277 19.3971 11.835C18.5532 10.9598 17.3342 11.1239 16.4778 11.9756C14.1024 14.3277 9.79543 14.3199 7.40127 11.8428C6.55737 10.9676 5.31966 11.1473 4.45701 11.9991C3.4881 12.9524 2.20663 13.5698 0.850146 13.7495C0.356311 13.812 0 14.359 0 14.9763V17.4926C0 18.2037 0.475081 18.8054 1.04393 18.7429C2.84424 18.5475 4.55078 17.852 6.00728 16.7189C9.53913 19.4227 14.5712 19.3836 18.0093 16.7189C21.5412 19.4227 26.5733 19.3836 30.0114 16.7189C31.4679 17.8286 33.1932 18.5397 34.956 18.735C35.5248 18.7976 35.9999 18.1959 35.9999 17.4847V15.0154C36.0062 14.3903 35.6436 13.812 35.1373 13.7417ZM35.1373 2.489C33.7933 2.29364 32.5056 1.66849 31.5179 0.699513C30.6365 -0.167881 29.38 -0.183509 28.5049 0.699513C26.1357 3.07508 21.8037 3.07508 19.3971 0.582298C18.5532 -0.29291 17.3342 -0.128808 16.4778 0.722956C14.1024 3.07508 9.79543 3.06726 7.40127 0.590112C6.55737 -0.285096 5.31966 -0.105366 4.45701 0.746399C3.4881 1.69975 2.20663 2.31708 0.850146 2.49681C0.356311 2.55933 0 3.10633 0 3.72367V6.23989C0 6.951 0.475081 7.5527 1.04393 7.49019C2.84424 7.29483 4.55078 6.59935 6.00728 5.46627C9.53913 8.17004 14.5712 8.13096 18.0093 5.46627C21.5412 8.17004 26.5733 8.13096 30.0114 5.46627C31.4679 6.57591 33.1932 7.28701 34.956 7.48237C35.5248 7.54489 35.9999 6.94318 35.9999 6.23208V3.76274C36.0062 3.13759 35.6436 2.55933 35.1373 2.489Z" fill="#FFD400"/>
</svg>
